<svg width="17" height="16" viewBox="0 0 17 16" fill="none" xmlns="http://www.w3.org/2000/svg">
<path fill-rule="evenodd" clip-rule="evenodd" d="M5.36672 1.36971C6.86315 0.662535 8.5548 0.482375 10.1666 0.858522C11.7784 1.23467 13.2156 2.145 14.2444 3.44149C15.2732 4.73799 15.8332 6.34439 15.8333 7.9995V8.66621C15.8333 9.37346 15.5524 10.0517 15.0523 10.5518C14.5522 11.0519 13.8739 11.3329 13.1667 11.3329C12.4594 11.3329 11.7811 11.0519 11.281 10.5518C11.1752 10.446 11.0792 10.3321 10.9935 10.2117C10.3829 10.8995 9.49206 11.3329 8.5 11.3329C6.65905 11.3329 5.16667 9.84049 5.16667 7.99954C5.16667 6.15859 6.65905 4.66621 8.5 4.66621C9.2504 4.66621 9.94289 4.91417 10.5 5.33263C10.5001 4.96455 10.7986 4.66621 11.1667 4.66621C11.5349 4.66621 11.8333 4.96469 11.8333 5.33288V7.99538C11.8333 7.99677 11.8333 7.99815 11.8333 7.99954C11.8333 8.00093 11.8333 8.00232 11.8333 8.00371V8.66621C11.8333 9.01983 11.9738 9.35897 12.2239 9.60902C12.4739 9.85907 12.813 9.99955 13.1667 9.99955C13.5203 9.99955 13.8594 9.85907 14.1095 9.60902C14.3595 9.35897 14.5 9.01983 14.5 8.66621V7.99959C14.5 7.99957 14.5 7.9996 14.5 7.99959C14.4999 6.64542 14.0417 5.33106 13.2 4.27031C12.3582 3.20954 11.1823 2.46472 9.86358 2.15697C8.54483 1.84921 7.16076 1.99661 5.93641 2.57521C4.71205 3.1538 3.71944 4.12956 3.11995 5.34382C2.52047 6.55808 2.34938 7.93943 2.6345 9.26326C2.91962 10.5871 3.64418 11.7755 4.69037 12.6353C5.73657 13.4952 7.04286 13.9758 8.39684 13.9991C9.75082 14.0224 11.0729 13.5869 12.148 12.7636C12.4403 12.5397 12.8588 12.5952 13.0826 12.8875C13.3065 13.1799 13.251 13.5983 12.9587 13.8222C11.6446 14.8285 10.0288 15.3607 8.37391 15.3322C6.71905 15.3038 5.12247 14.7163 3.84379 13.6654C2.56511 12.6145 1.67953 11.162 1.33105 9.54399C0.982572 7.92598 1.19168 6.23766 1.92439 4.75357C2.65709 3.26947 3.87029 2.07688 5.36672 1.36971ZM10.5 7.99632C10.4983 6.89323 9.6035 5.99954 8.5 5.99954C7.39543 5.99954 6.5 6.89497 6.5 7.99954C6.5 9.10411 7.39543 9.99954 8.5 9.99954C9.60349 9.99954 10.4983 9.10585 10.5 8.00277V7.99632Z" fill="white"/>
</svg>
