<svg width="17" height="16" viewBox="0 0 17 16" fill="none" xmlns="http://www.w3.org/2000/svg">
<path fill-rule="evenodd" clip-rule="evenodd" d="M7.33826 1.8382C8.08841 1.08805 9.10582 0.666626 10.1667 0.666626H12.1667C12.5349 0.666626 12.8334 0.965103 12.8334 1.33329V3.99996C12.8334 4.36815 12.5349 4.66663 12.1667 4.66663H10.1667V5.99996H12.1667C12.372 5.99996 12.5658 6.09454 12.6922 6.25635C12.8185 6.41816 12.8632 6.62916 12.8134 6.82832L12.1468 9.49498C12.0726 9.79176 11.8059 9.99996 11.5 9.99996H10.1667V14.6666C10.1667 15.0348 9.86821 15.3333 9.50002 15.3333H6.83335C6.46516 15.3333 6.16669 15.0348 6.16669 14.6666V9.99996H4.83335C4.46516 9.99996 4.16669 9.70148 4.16669 9.33329V6.66663C4.16669 6.29844 4.46516 5.99996 4.83335 5.99996H6.16669V4.66663C6.16669 3.60576 6.58811 2.58834 7.33826 1.8382ZM10.1667 1.99996C9.45944 1.99996 8.78117 2.28091 8.28107 2.78101C7.78097 3.2811 7.50002 3.95938 7.50002 4.66663V6.66663C7.50002 7.03482 7.20154 7.33329 6.83335 7.33329H5.50002V8.66663H6.83335C7.20154 8.66663 7.50002 8.9651 7.50002 9.33329V14H8.83335V9.33329C8.83335 8.9651 9.13183 8.66663 9.50002 8.66663H10.9795L11.3128 7.33329H9.50002C9.13183 7.33329 8.83335 7.03482 8.83335 6.66663V4.66663C8.83335 4.313 8.97383 3.97387 9.22388 3.72382C9.47393 3.47377 9.81306 3.33329 10.1667 3.33329H11.5V1.99996H10.1667Z" fill="white"/>
</svg>
