<svg width="17" height="16" viewBox="0 0 17 16" fill="none" xmlns="http://www.w3.org/2000/svg">
<path fill-rule="evenodd" clip-rule="evenodd" d="M5.16669 1.99996C3.69393 1.99996 2.50002 3.19387 2.50002 4.66663V11.3333C2.50002 12.8061 3.69393 14 5.16669 14H11.8334C13.3061 14 14.5 12.8061 14.5 11.3333V4.66663C14.5 3.19387 13.3061 1.99996 11.8334 1.99996H5.16669ZM1.16669 4.66663C1.16669 2.45749 2.95755 0.666626 5.16669 0.666626H11.8334C14.0425 0.666626 15.8334 2.45749 15.8334 4.66663V11.3333C15.8334 13.5424 14.0425 15.3333 11.8334 15.3333H5.16669C2.95755 15.3333 1.16669 13.5424 1.16669 11.3333V4.66663ZM11.5 4.33329C11.5 3.9651 11.7985 3.66663 12.1667 3.66663H12.1734C12.5415 3.66663 12.84 3.9651 12.84 4.33329C12.84 4.70148 12.5415 4.99996 12.1734 4.99996H12.1667C11.7985 4.99996 11.5 4.70148 11.5 4.33329ZM8.82223 5.99275C8.40611 5.93104 7.98112 6.00212 7.60772 6.19587C7.23432 6.38962 6.93152 6.69617 6.74239 7.07193C6.55326 7.44769 6.48743 7.87352 6.55426 8.28885C6.62109 8.70418 6.81719 9.08786 7.11465 9.38533C7.41211 9.68279 7.79579 9.87888 8.21112 9.94571C8.62645 10.0125 9.05228 9.94671 9.42804 9.75758C9.8038 9.56845 10.1104 9.26565 10.3041 8.89225C10.4979 8.51885 10.5689 8.09387 10.5072 7.67775C10.4443 7.25328 10.2465 6.86032 9.94308 6.5569C9.63965 6.25348 9.24669 6.05569 8.82223 5.99275ZM6.99363 5.01237C7.61596 4.68945 8.32427 4.57099 9.01781 4.67383C9.72524 4.77874 10.3802 5.10839 10.8859 5.61409C11.3916 6.11979 11.7212 6.77473 11.8261 7.48217C11.929 8.17571 11.8105 8.88401 11.4876 9.50635C11.1647 10.1287 10.6538 10.6333 10.0275 10.9486C9.40123 11.2638 8.69151 11.3735 7.9993 11.2621C7.30708 11.1507 6.66761 10.8239 6.17184 10.3281C5.67607 9.83237 5.34925 9.1929 5.23786 8.50068C5.12648 7.80846 5.2362 7.09875 5.55141 6.47248C5.86663 5.84621 6.3713 5.33528 6.99363 5.01237Z" fill="white"/>
</svg>
