<svg width="24" height="24" viewBox="0 0 24 24" fill="none" xmlns="http://www.w3.org/2000/svg">
<path fill-rule="evenodd" clip-rule="evenodd" d="M4 3.5C3.44772 3.5 3 3.94772 3 4.5C3 5.05228 3.44772 5.5 4 5.5C4.55228 5.5 5 5.05228 5 4.5C5 3.94772 4.55228 3.5 4 3.5ZM1 4.5C1 2.84315 2.34315 1.5 4 1.5C5.65685 1.5 7 2.84315 7 4.5C7 6.15685 5.65685 7.5 4 7.5C2.34315 7.5 1 6.15685 1 4.5ZM16 9.5C14.6739 9.5 13.4021 10.0268 12.4645 10.9645C11.5268 11.9021 11 13.1739 11 14.5V20.5H13V14.5C13 13.7043 13.3161 12.9413 13.8787 12.3787C14.4413 11.8161 15.2043 11.5 16 11.5C16.7957 11.5 17.5587 11.8161 18.1213 12.3787C18.6839 12.9413 19 13.7043 19 14.5V20.5H21V14.5C21 13.1739 20.4732 11.9021 19.5355 10.9645C18.5979 10.0268 17.3261 9.5 16 9.5ZM11.0503 9.55025C12.363 8.2375 14.1435 7.5 16 7.5C17.8565 7.5 19.637 8.2375 20.9497 9.55025C22.2625 10.863 23 12.6435 23 14.5V21.5C23 22.0523 22.5523 22.5 22 22.5H18C17.4477 22.5 17 22.0523 17 21.5V14.5C17 14.2348 16.8946 13.9804 16.7071 13.7929C16.5196 13.6054 16.2652 13.5 16 13.5C15.7348 13.5 15.4804 13.6054 15.2929 13.7929C15.1054 13.9804 15 14.2348 15 14.5V21.5C15 22.0523 14.5523 22.5 14 22.5H10C9.44772 22.5 9 22.0523 9 21.5V14.5C9 12.6435 9.7375 10.863 11.0503 9.55025ZM1 9.5C1 8.94772 1.44772 8.5 2 8.5H6C6.55228 8.5 7 8.94772 7 9.5V21.5C7 22.0523 6.55228 22.5 6 22.5H2C1.44772 22.5 1 22.0523 1 21.5V9.5ZM3 10.5V20.5H5V10.5H3Z" fill="#FEF8FA"/>
</svg>
