<svg width="267" height="56" viewBox="0 0 267 56" fill="none" xmlns="http://www.w3.org/2000/svg">
<path d="M47.6492 43.4629C47.6492 43.4629 47.2399 41.2232 48.1504 40.7218C49.0626 40.2204 49.9063 40.3374 49.9063 40.3374L50.3022 41.484C52.9987 37.2971 54.5641 32.3281 54.5641 26.9963C54.5641 12.0875 42.3498 0 27.2821 0C12.2143 0 0 12.0858 0 26.9963C0 34.9672 3.4917 42.1291 9.04167 47.0714L9.39418 46.9728V45.0541H14.1389L13.2434 39.7959C13.2434 39.7959 13.5141 39.0187 15.574 39.0187C17.6339 39.0187 18.2955 39.7959 18.2955 39.7959L19.0523 45.0541H21.129V40.5062C21.129 40.5062 24.4553 39.5034 26.415 40.5062C26.415 42.5453 26.415 45.1844 26.415 45.1844H28.4248V40.6065C28.4248 40.6065 29.0162 40.0616 31.1096 40.0616C33.2029 40.0616 33.7609 40.6399 33.7609 40.6399V45.1075H35.9061L36.6662 39.5385C36.6662 39.5385 39.9858 38.2214 41.4761 39.7992C40.7861 44.5175 40.736 45.0557 40.736 45.0557H45.5492V47.048C46.1038 46.5533 46.6368 46.0352 47.148 45.497L47.6492 43.4629Z" fill="#39B44A"/>
<path d="M43.6544 49.535L43.1699 50.6548H49.861C49.861 50.6548 51.7471 44.6562 52.1648 40.7518L49.2762 40.4644C49.2762 40.4644 48.2989 41.3819 48.2989 43.2238C48.2989 43.6684 48.3423 43.9392 48.3423 43.9392L46.8053 49.3445H44.047L43.6544 49.535Z" fill="#E5E6E7"/>
<path d="M10.9595 45.2764V47.1901H12.9292L14.914 54.5309H40.9564L43.0932 47.165H45.2383V45.3365L10.9595 45.2764Z" fill="#58595B"/>
<path d="M29.1851 45.2763V40.6065C29.1851 40.6065 32.0001 40.0699 33.4403 40.9474C33.4403 44.1565 33.4403 45.3883 33.4403 45.3883L29.1851 45.2763Z" fill="#808184"/>
<path d="M22.1548 45.166V40.6599C22.1548 40.6599 25.0651 39.7039 26.41 40.9608C26.41 44.0128 26.41 45.3365 26.41 45.3365L22.1548 45.166Z" fill="#E5E6E7"/>
<path d="M5.65694 50.588C5.65694 50.588 3.77075 44.3403 3.4834 40.5931C5.18581 40.4092 7.3677 39.7724 7.3677 43.8423C7.3677 45.0824 8.74768 49.3261 8.74768 49.3261H12.1876L12.3613 50.7585L5.65694 50.588Z" fill="#808184"/>
<path d="M46.8491 50.6549H46.0288V56H46.8491V50.6549Z" fill="#231F20"/>
<path d="M50.2537 51.0644H42.1226V50.2437H49.6723C49.9964 49.271 51.1007 45.7544 51.8058 40.9474C51.0272 40.8589 49.2797 40.7368 48.1837 41.2316C47.7226 41.4589 47.6959 42.9565 47.6859 43.5197C47.6825 43.7487 47.6792 43.9292 47.6625 44.0546C47.5957 44.5593 46.3627 48.6492 46.1171 49.4649L46.0286 49.7557H42.5954V48.935H45.4205C45.9851 47.0597 46.8071 44.2685 46.8506 43.9476C46.8606 43.869 46.8639 43.6935 46.8673 43.5063C46.884 42.5486 46.9124 40.9441 47.8363 40.4895C49.5136 39.734 52.2251 40.1719 52.3404 40.1903L52.7347 40.2555L52.6795 40.6516C51.8459 46.6235 50.369 50.7535 50.354 50.7936L50.2537 51.0644Z" fill="#231F20"/>
<path d="M33.9297 45.3366H33.1094V41.1196C31.0327 40.3324 29.2 40.879 28.5752 41.1146V45.3349H27.7549V40.5881L27.9821 40.4745C28.0907 40.421 30.6618 39.1741 33.6807 40.4645L33.9297 40.5714V45.3366Z" fill="#231F20"/>
<path d="M8.59374 50.6549H7.77344V56H8.59374V50.6549Z" fill="#231F20"/>
<path d="M12.5001 51.0644H4.36892L4.27035 50.7937C4.25532 50.7535 2.78011 46.6235 1.94478 40.6516L1.88965 40.2555L2.28392 40.1903C2.3992 40.1703 5.10903 39.7341 6.77469 40.4828C7.71193 40.9441 7.73866 42.5487 7.75537 43.5064C7.75871 43.6936 7.76206 43.8691 7.77208 43.9476C7.81385 44.2685 8.63749 47.0598 9.20218 48.9351H12.0273V49.7557H8.59405L8.5055 49.4649C8.25824 48.6493 7.02529 44.561 6.96013 44.0546C6.94342 43.9292 6.94009 43.7504 6.93675 43.5214C6.92672 42.9582 6.90166 41.4589 6.42719 41.2266C5.34125 40.7369 3.59707 40.8606 2.81854 40.9492C3.52356 45.7578 4.62621 49.2727 4.95032 50.2471H12.5001V51.0644Z" fill="#231F20"/>
<path d="M26.8677 45.3365H26.0474V41.1163C25.4225 40.8789 23.5898 40.334 21.5132 41.1213V45.3382H20.6929V40.5747L20.9418 40.4678C23.9607 39.1774 26.5335 40.4243 26.6405 40.4778L26.8677 40.5914V45.3365Z" fill="#231F20"/>
<path d="M45.6177 47.5979H8.91309V44.9337H45.6177V47.5979ZM9.73339 46.7773H44.7974V45.756H9.73339V46.7773Z" fill="#231F20"/>
<path d="M41.2504 55.1509H13.2851L10.9595 47.3037L11.7447 47.0697L13.8965 54.3302H40.6373L42.7757 47.0714L43.5626 47.3037L41.2504 55.1509Z" fill="#231F20"/>
<path d="M37.473 39.5585C37.473 39.5585 36.6928 47.496 35.3262 50.8371C38.2198 50.8371 39.411 50.8371 39.411 50.8371L41.2838 39.8811C41.2838 39.8828 39.5028 38.7479 37.473 39.5585Z" fill="#BBBDBF"/>
<path d="M16.2823 50.7585C16.2823 50.7585 14.3911 44.7231 14.2842 39.5451C15.2264 38.6025 18.2119 40.0432 18.2119 40.0432L20.347 50.7568H16.2823V50.7585Z" fill="#BBBDBF"/>
<path d="M35.6403 55.9983H34.8199V50.4276H39.0484C39.3374 49.6838 40.2346 46.9411 40.8912 40.2154C40.3883 39.8961 38.8362 39.1273 36.7797 40.187C36.6092 41.5375 35.677 48.6359 34.551 50.9557L34.439 51.1864H29.5557V50.3657H33.9178C35.0338 47.7183 35.9827 39.9563 35.9928 39.8761L36.0178 39.6688L36.1999 39.5669C39.2623 37.852 41.4893 39.622 41.5828 39.6989L41.7532 39.8376L41.7332 40.0549C40.9229 48.5506 39.7367 50.9273 39.6866 51.0243L39.5713 51.2466H35.6419V55.9983H35.6403Z" fill="#231F20"/>
<path d="M34.272 49.7523H29.5557V50.573H34.272V49.7523Z" fill="#231F20"/>
<path d="M19.801 55.9984H18.9807V51.2483H15.0512L14.936 51.026C14.8858 50.929 13.698 48.5523 12.8877 40.0566L12.8677 39.8394L13.0381 39.7006C13.1316 39.6237 15.3586 37.8537 18.421 39.5686L18.6031 39.6705L18.6281 39.8778C18.6382 39.958 19.5871 47.72 20.7031 50.3675H25.0652V51.1881H20.1819L20.0699 50.9575C18.9439 48.6376 18.01 41.5392 17.8413 40.1887C15.798 39.139 14.2343 39.9029 13.7314 40.2188C14.3863 46.9394 15.2851 49.6839 15.5742 50.4293H19.8026V55.9984H19.801Z" fill="#231F20"/>
<path d="M25.0649 49.7523H20.3486V50.573H25.0649V49.7523Z" fill="#231F20"/>
<path d="M36.1715 50.4276H29.5557V51.2483H36.1715V50.4276Z" fill="#231F20"/>
<path d="M25.0653 50.4276H18.3843V51.2483H25.0653V50.4276Z" fill="#231F20"/>
<path d="M18.1135 26.0787C18.847 26.7439 19.2145 27.4893 19.2145 28.3167C19.2145 28.9017 19.0257 29.4582 18.6465 29.9864C18.1185 30.7318 17.3166 31.3001 16.2374 31.6912C15.2851 32.0355 14.2292 32.2077 13.0715 32.2077H8.96494L6.2334 28.6727H13.3037C13.7046 28.6727 14.2159 28.9652 14.57 28.885C15.098 28.7696 15.3603 28.5925 15.3603 28.3518C15.3603 28.1111 15.0963 27.9339 14.57 27.8186C14.2159 27.7384 13.8366 27.6983 13.4373 27.6983H11.5161L8.8881 24.3287H13.3137C13.6345 24.3287 14.0655 24.4491 14.3295 24.3555C14.707 24.2151 14.8975 24.0095 14.8975 23.7387C14.8975 23.468 14.7087 23.2691 14.3295 23.1404C14.0655 23.0468 13.7731 23 13.4524 23H8.96661L6.38877 19.7809H13.0698C14.2392 19.7809 15.2985 19.9764 16.239 20.3308C17.3166 20.7319 18.1202 21.3119 18.6482 22.069C19.0274 22.6089 19.2162 23.1772 19.2162 23.7738C19.2145 24.6212 18.847 25.3901 18.1135 26.0787Z" fill="url(#paint0_linear_134_189)"/>
<path d="M31.7361 19.8143L29.2585 23.0167H26.7943C25.5897 23.0167 24.6491 23.356 23.9725 24.0329H28.4499C29.758 24.0329 30.7955 24.4524 31.564 25.2898C32.2758 26.0587 32.6316 26.9997 32.6316 28.1128C32.6316 29.2376 32.2758 30.1837 31.564 30.9525C30.7955 31.8016 29.758 32.2261 28.4499 32.2261H26.7943C24.6258 32.2261 22.8348 31.6261 21.4181 30.4277C20.0013 29.2293 19.293 27.7234 19.293 25.9099C19.293 24.0964 19.9946 22.6273 21.4014 21.5024C22.8064 20.3776 24.604 19.816 26.796 19.816H31.7361V19.8143ZM28.4499 29.022C28.9895 29.022 29.2585 28.7178 29.2585 28.1095C29.2585 27.8688 29.2017 27.6498 29.0864 27.4559C28.9261 27.2153 28.7139 27.0949 28.4499 27.0949H23.336C23.8405 28.3802 24.9933 29.022 26.7943 29.022H28.4499Z" fill="url(#paint1_linear_134_189)"/>
<path d="M48.025 25.9065C48.025 27.72 47.3166 29.2259 45.8999 30.4243C44.4832 31.6243 42.6972 32.2227 40.5404 32.2227H40.3182C38.1497 32.2227 36.3571 31.6227 34.942 30.4243C33.5253 29.2259 32.8169 27.72 32.8169 25.9065C32.8169 24.0931 33.5186 22.6239 34.9253 21.4991C36.3303 20.3742 38.128 19.8126 40.3199 19.8126H40.5421C42.7323 19.8126 44.5283 20.3742 45.9283 21.4991C47.325 22.6256 48.025 24.0947 48.025 25.9065ZM40.3266 23.015C39.2623 23.015 38.3852 23.2991 37.6986 23.8691C37.012 24.439 36.6678 25.1661 36.6678 26.0536C36.6678 26.9394 37.0103 27.6565 37.6986 28.203C38.3852 28.7496 39.2607 29.022 40.3266 29.022H40.5471C41.6113 29.022 42.4867 28.7496 43.1734 28.203C43.86 27.6565 44.2042 26.9394 44.2042 26.0536C44.2042 25.1678 43.8584 24.439 43.165 23.8691C42.4734 23.2991 41.5996 23.015 40.5471 23.015H40.3266Z" fill="url(#paint2_linear_134_189)"/>
<path d="M17.9898 25.8581C18.6999 26.5016 19.0557 27.2236 19.0557 28.0226C19.0557 28.5892 18.872 29.1274 18.5061 29.6388C17.9949 30.3608 17.218 30.9107 16.1755 31.2868C15.2533 31.6194 14.2325 31.7865 13.1132 31.7865H9.13863L6.74121 28.6895H13.464C13.8516 28.6895 14.2175 28.651 14.5616 28.5725C15.0712 28.4621 15.3268 28.29 15.3268 28.056C15.3268 27.8237 15.0712 27.6515 14.5616 27.5395C14.2191 27.4627 13.8533 27.4225 13.4657 27.4225H11.6062L9.1971 24.3254H13.479C13.7898 24.3254 14.0721 24.2803 14.3277 24.1884C14.6936 24.0513 14.8774 23.8524 14.8774 23.5917C14.8774 23.331 14.6936 23.1371 14.3277 23.0117C14.0721 22.9215 13.7898 22.8747 13.479 22.8747H9.13863L6.74121 19.7776H13.1115C14.2442 19.7776 15.265 19.9497 16.1738 20.294C17.2163 20.6835 17.9932 21.2434 18.5044 21.9771C18.8703 22.4986 19.0541 23.0485 19.0541 23.6251C19.0557 24.4491 18.6999 25.1929 17.9898 25.8581Z" fill="url(#paint3_linear_134_189)"/>
<path d="M31.1699 19.796L28.7725 22.8931H26.3885C25.224 22.8931 24.3135 23.2207 23.6586 23.8759H27.9906C29.2553 23.8759 30.2594 24.282 31.0029 25.091C31.6912 25.8347 32.0353 26.7456 32.0353 27.822C32.0353 28.9101 31.6912 29.826 31.0029 30.5698C30.2594 31.3921 29.2553 31.8016 27.9906 31.8016H26.3885C24.2918 31.8016 22.5576 31.2216 21.186 30.0617C19.8144 28.9017 19.1294 27.4443 19.1294 25.6893C19.1294 23.9344 19.8094 22.5137 21.1693 21.4256C22.5292 20.3375 24.2684 19.7943 26.3885 19.7943H31.1699V19.796ZM27.9906 28.7062C28.5119 28.7062 28.7725 28.412 28.7725 27.8237C28.7725 27.5914 28.7174 27.3791 28.6071 27.1902C28.4517 26.9562 28.2462 26.8409 27.9906 26.8409H23.0421C23.5299 28.0844 24.646 28.7062 26.3885 28.7062H27.9906Z" fill="url(#paint4_linear_134_189)"/>
<path d="M46.9308 25.6926C46.9308 27.4476 46.2458 28.905 44.8742 30.065C43.5043 31.2249 41.7751 31.8049 39.6884 31.8049H39.4729C37.3762 31.8049 35.6404 31.2249 34.2705 30.065C32.9005 28.905 32.2139 27.4476 32.2139 25.6926C32.2139 23.9376 32.8938 22.517 34.2537 21.4289C35.6137 20.3408 37.3529 19.7976 39.4729 19.7976H39.6884C41.8085 19.7976 43.5444 20.3425 44.8993 21.4289C46.2525 22.517 46.9308 23.9376 46.9308 25.6926ZM39.483 22.8947C38.4522 22.8947 37.6051 23.1705 36.9419 23.722C36.2769 24.2736 35.9445 24.9773 35.9445 25.8347C35.9445 26.6921 36.2769 27.3857 36.9419 27.9139C37.6068 28.442 38.4538 28.7078 39.483 28.7078H39.6968C40.7276 28.7078 41.5746 28.4437 42.2379 27.9139C42.9028 27.3857 43.2353 26.6921 43.2353 25.8347C43.2353 24.9773 42.8995 24.2736 42.2295 23.722C41.5596 23.1705 40.7142 22.8947 39.6968 22.8947H39.483Z" fill="url(#paint5_linear_134_189)"/>
<path d="M51.7909 18.6176C51.7909 19.2494 51.5436 19.7742 51.0508 20.1921C50.5579 20.6099 49.9348 20.8188 49.183 20.8188H49.1061C48.351 20.8188 47.7261 20.6099 47.2333 20.1921C46.7404 19.7742 46.4932 19.2494 46.4932 18.6176C46.4932 17.9858 46.7388 17.4744 47.2283 17.0816C47.7178 16.6905 48.3443 16.4933 49.1078 16.4933H49.1846C49.9481 16.4933 50.5729 16.6888 51.0608 17.0816C51.5469 17.4744 51.7909 17.9875 51.7909 18.6176ZM49.1094 17.6114C48.7386 17.6114 48.4328 17.7101 48.1939 17.909C47.955 18.1079 47.8347 18.3619 47.8347 18.6694C47.8347 18.9786 47.955 19.2277 48.1939 19.4182C48.4328 19.6088 48.7386 19.704 49.1094 19.704H49.1863C49.5572 19.704 49.8629 19.6088 50.1018 19.4182C50.3407 19.2277 50.461 18.9786 50.461 18.6694C50.461 18.3602 50.3407 18.1062 50.0985 17.909C49.8579 17.7101 49.5522 17.6114 49.1863 17.6114H49.1094Z" fill="url(#paint6_linear_134_189)"/>
<path d="M51.4102 18.5441C51.4102 19.1559 51.1713 19.664 50.6935 20.0668C50.2157 20.4712 49.6142 20.6735 48.8858 20.6735H48.8106C48.0806 20.6735 47.4758 20.4712 46.998 20.0668C46.5202 19.6623 46.2812 19.1542 46.2812 18.5441C46.2812 17.9324 46.5185 17.4377 46.9913 17.0583C47.4641 16.6789 48.0705 16.49 48.809 16.49H48.8841C49.6226 16.49 50.2274 16.6789 50.7002 17.0583C51.1746 17.4377 51.4102 17.9324 51.4102 18.5441ZM48.8157 17.568C48.4565 17.568 48.1608 17.6633 47.9302 17.8555C47.698 18.0477 47.5827 18.2934 47.5827 18.5909C47.5827 18.8901 47.698 19.1308 47.9302 19.3163C48.1624 19.5002 48.4565 19.5921 48.8157 19.5921H48.8908C49.25 19.5921 49.5441 19.5002 49.7763 19.3163C50.0085 19.1325 50.1238 18.8901 50.1238 18.5909C50.1238 18.2918 50.0068 18.0461 49.7729 17.8555C49.539 17.665 49.245 17.568 48.8908 17.568H48.8157Z" fill="url(#paint7_linear_134_189)"/>
<path d="M81.2136 25.8202C81.2136 29.8885 77.9764 32.4187 72.4384 32.4187C66.8012 32.4187 64.2089 30.4342 63.564 25.9504L69.0399 25.1815C69.4244 26.7194 70.3547 27.2652 72.3702 27.2652C74.3857 27.2652 75.4462 26.5892 75.4462 25.2807C75.4462 24.0342 74.5469 23.2962 72.4384 23.2962H69.8461V18.9427H71.6074C73.8834 18.9427 74.8446 18.3039 74.8446 17.0202C74.8446 15.9597 73.9826 15.2279 72.2524 15.2279C70.5531 15.2279 69.5299 15.8047 69.1764 17.2125L63.7624 16.4745C64.4012 12.3752 67.4151 10.0372 72.5066 10.0372C77.4369 10.0372 80.3826 12.3132 80.3826 15.8667C80.3826 18.0124 79.6136 19.6434 77.5299 20.6729C79.7439 21.3365 81.2136 22.9365 81.2136 25.8202Z" fill="white"/>
<path d="M101.84 24.8279C101.84 29.7272 98.0633 32.4187 92.6804 32.4187C86.4664 32.4187 83.3594 28.9892 83.3594 21.4977C83.3594 13.7457 87.1051 10.031 93.0648 10.031C97.6106 10.031 100.494 11.9845 101.263 16.4682L95.4649 17.2372C95.1114 15.7985 94.2803 15.0605 92.7424 15.0915C90.7889 15.1225 89.5423 16.245 89.6044 20.5365C90.8509 19.0295 92.8726 18.3597 95.2416 18.3597C99.5331 18.3597 101.84 20.8899 101.84 24.8279ZM96.0106 25.0512C96.0106 23.6434 94.8571 22.8434 93.0338 22.8434C91.5268 22.8434 90.0571 23.5504 90.0571 25.1194C90.0571 26.5272 91.3036 27.3272 93.0648 27.3272C94.7951 27.3272 96.0106 26.5272 96.0106 25.0512Z" fill="white"/>
<path d="M103.949 21.3055C103.949 14.2605 107.632 10 113.716 10C120.023 10 123.484 13.938 123.484 21.1752C123.484 28.2202 119.862 32.4497 113.685 32.4497C107.409 32.4497 103.949 28.5117 103.949 21.3055ZM116.984 21.2062C116.984 16.9148 115.862 15.1225 113.716 15.1225C111.601 15.1225 110.448 16.8837 110.448 21.2062C110.448 25.5287 111.57 27.321 113.716 27.321C115.831 27.3272 116.984 25.5349 116.984 21.2062Z" fill="white"/>
<path d="M146.361 21.1442C146.361 27.9039 141.971 31.904 134.833 31.904H126.38V10.5706H135.025C142.101 10.5768 146.361 14.3535 146.361 21.1442ZM139.893 21.3055C139.893 17.5907 138.033 15.8295 134.51 15.7985L132.457 15.7675V26.6264L134.572 26.6574C138.033 26.6512 139.893 24.9892 139.893 21.3055Z" fill="white"/>
<path d="M164.836 26.8745V31.904H149.301V10.5706H164.513V15.569H155.385V18.4528H163.775V23.4512H155.385V26.8807H164.836V26.8745Z" fill="white"/>
<path d="M187 19.9287V31.9101H182.417L182.095 30.5954C180.557 31.8729 178.541 32.4497 176.135 32.4497C170.628 32.4497 166.591 28.6419 166.591 21.4667C166.591 14.2605 170.851 10.031 177.158 10.031C182.603 10.031 185.903 12.7535 186.703 17.5907L180.681 18.3597C180.296 16.4372 178.982 15.507 177.127 15.507C174.69 15.507 173.09 17.5225 173.09 21.2372C173.09 25.0822 174.628 26.9365 177.059 26.9365C179.844 26.9365 180.904 25.6218 181.382 24.5675H177.537V19.9225H187V19.9287Z" fill="white"/>
<path d="M198.783 25.4667H196.383V31.904H190.299V10.5706H200.098C205.481 10.5706 208.52 13.262 208.52 18C208.52 21.0078 207.112 23.1598 204.743 24.3443L209.003 31.904H202.089L198.783 25.4667ZM196.383 20.5365H199.36C201.183 20.5365 202.275 19.7675 202.275 18.1675C202.275 16.5303 201.22 15.8295 199.36 15.8295H196.383V20.5365Z" fill="white"/>
<path d="M227.192 26.8745V31.904H211.657V10.5706H226.87V15.569H217.741V18.4528H226.132V23.4512H217.741V26.8807H227.192V26.8745Z" fill="white"/>
<path d="M245.865 26.8745V31.904H230.331V10.5706H245.543V15.569H236.414V18.4528H244.805V23.4512H236.414V26.8807H245.865V26.8745Z" fill="white"/>
<path d="M247.72 25.8202L253.611 24.9892C253.965 26.7505 255.118 27.4264 257.134 27.4264C259.056 27.4264 260.017 27.0109 260.017 25.8264C260.017 24.6419 259.217 24.3195 255.211 23.6497C251.273 23.0109 248.067 21.6652 248.067 17.0822C248.067 12.5985 251.49 10.0372 256.873 10.0372C261.965 10.0372 264.817 12.0589 265.518 16.3442L259.627 17.1752C259.335 15.5752 258.188 15.0915 256.582 15.0915C254.951 15.0915 254.213 15.6682 254.213 16.5303C254.213 17.5225 254.883 17.907 258.951 18.645C263.819 19.507 266.095 21.3365 266.095 25.4047C266.095 30.1427 262.703 32.4497 256.774 32.4497C251.273 32.4497 248.296 30.4652 247.72 25.8202Z" fill="white"/>
<path d="M63.564 43.2465L66.0074 42.8992C66.1562 43.631 66.6337 43.9101 67.4647 43.9101C68.2585 43.9101 68.6617 43.7364 68.6617 43.2465C68.6617 42.7566 68.333 42.6201 66.6709 42.3473C65.0399 42.0806 63.7128 41.5225 63.7128 39.6248C63.7128 37.7705 65.133 36.7039 67.3593 36.7039C69.4679 36.7039 70.6524 37.541 70.9438 39.3147L68.5004 39.662C68.3826 38.9984 67.9051 38.8 67.2415 38.8C66.5655 38.8 66.2616 39.0356 66.2616 39.3953C66.2616 39.8046 66.5407 39.9659 68.2275 40.2698C70.2431 40.6295 71.1857 41.386 71.1857 43.0667C71.1857 45.0326 69.7779 45.9876 67.3221 45.9876C65.0399 45.9938 63.8058 45.169 63.564 43.2465Z" fill="white"/>
<path d="M79.2913 42.1178V45.7644H76.7858V42.0868L73.7471 36.9271H76.482L78.1254 40.0713L79.7068 36.9271H82.2928L79.2913 42.1178Z" fill="white"/>
<path d="M84.9346 43.2465L87.378 42.8992C87.5268 43.631 88.0044 43.9101 88.8354 43.9101C89.6292 43.9101 90.0323 43.7364 90.0323 43.2465C90.0323 42.7566 89.7036 42.6201 88.0415 42.3473C86.4105 42.0806 85.0834 41.5225 85.0834 39.6248C85.0834 37.7705 86.5036 36.7039 88.7299 36.7039C90.8385 36.7039 92.023 37.541 92.3144 39.3147L89.871 39.662C89.7532 38.9984 89.2757 38.8 88.6121 38.8C87.9361 38.8 87.6323 39.0356 87.6323 39.3953C87.6323 39.8046 87.9113 39.9659 89.5981 40.2698C91.6137 40.6295 92.5563 41.386 92.5563 43.0667C92.5563 45.0326 91.1485 45.9876 88.6927 45.9876C86.4043 45.9938 85.1702 45.169 84.9346 43.2465Z" fill="white"/>
<path d="M102.925 39.3209H100.494V45.7706H98.0013V39.3209H95.5083V36.9333H102.925V39.3209Z" fill="white"/>
<path d="M113.015 43.6869V45.7706H106.578V36.9333H112.879V39.0047H109.096V40.2016H112.575V42.2729H109.096V43.693H113.015V43.6869Z" fill="white"/>
<path d="M126.882 45.7705H124.6V41.6464L124.681 39.8046L122.994 45.6589H120.792L119.106 39.848L119.186 41.6526V45.7767H116.972V36.9395H120.476L121.909 42.2728L121.946 42.5891L122.002 42.2728L123.434 36.9395H126.882V45.7705Z" fill="white"/>
<path d="M130.702 43.2465L133.146 42.8992C133.294 43.631 133.772 43.9101 134.603 43.9101C135.397 43.9101 135.8 43.7364 135.8 43.2465C135.8 42.7566 135.471 42.6201 133.809 42.3473C132.178 42.0806 130.851 41.5225 130.851 39.6248C130.851 37.7705 132.271 36.7039 134.498 36.7039C136.606 36.7039 137.791 37.541 138.082 39.3147L135.639 39.662C135.521 38.9984 135.043 38.8 134.38 38.8C133.704 38.8 133.4 39.0356 133.4 39.3953C133.4 39.8046 133.679 39.9659 135.366 40.2698C137.381 40.6295 138.324 41.386 138.324 43.0667C138.324 45.0326 136.916 45.9876 134.46 45.9876C132.178 45.9938 130.944 45.169 130.702 43.2465Z" fill="white"/>
<path d="M146.721 41.4046C146.721 38.5147 148.538 36.7101 151.006 36.7101C153.17 36.7101 154.64 37.6899 154.907 39.9349L152.519 40.2512C152.346 39.3333 151.818 38.9798 151.043 38.9798C150.113 38.9798 149.412 39.786 149.412 41.3426C149.412 42.9737 150.076 43.7179 151.043 43.7179C151.825 43.7179 152.37 43.3706 152.581 42.4031L154.956 42.7194C154.69 44.9458 153.071 46 150.907 46C148.501 45.9938 146.721 44.4124 146.721 41.4046Z" fill="white"/>
<path d="M158.188 41.3922C158.188 38.4589 160.073 36.6976 162.727 36.6976C165.462 36.6976 167.267 38.3721 167.267 41.3178C167.267 44.2512 165.381 46 162.727 46C159.992 45.9938 158.188 44.338 158.188 41.3922ZM164.6 41.3488C164.6 39.8356 163.881 38.9736 162.727 38.9736C161.586 38.9736 160.885 39.8356 160.885 41.3488C160.885 42.862 161.561 43.7116 162.727 43.7116C163.868 43.7116 164.6 42.8744 164.6 41.3488Z" fill="white"/>
<path d="M174.672 43.1039H173.679V45.7706H171.155V36.9333H175.217C177.45 36.9333 178.709 38.0496 178.709 40.0093C178.709 41.2558 178.126 42.1489 177.14 42.6388L178.907 45.7706H176.042L174.672 43.1039ZM173.673 41.0574H174.907C175.664 41.0574 176.117 40.7411 176.117 40.0776C176.117 39.4016 175.676 39.1101 174.907 39.1101H173.673V41.0574Z" fill="white"/>
<path d="M190.25 40.183C190.25 42.2915 188.885 43.4884 186.56 43.4884H185.115V45.7706H182.591V36.9333H186.64C189.016 36.9333 190.25 38.0744 190.25 40.183ZM186.349 39.1039H185.115V41.3054H186.349C187.186 41.3054 187.676 40.9458 187.688 40.1892C187.701 39.4512 187.168 39.1039 186.349 39.1039Z" fill="white"/>
<path d="M193.475 41.3922C193.475 38.4589 195.36 36.6976 198.014 36.6976C200.749 36.6976 202.554 38.3721 202.554 41.3178C202.554 44.2512 200.668 46 198.014 46C195.279 45.9938 193.475 44.338 193.475 41.3922ZM199.881 41.3488C199.881 39.8356 199.161 38.9736 198.008 38.9736C196.867 38.9736 196.166 39.8356 196.166 41.3488C196.166 42.862 196.842 43.7116 198.008 43.7116C199.155 43.7116 199.881 42.8744 199.881 41.3488Z" fill="white"/>
<path d="M209.958 43.1039H208.966V45.7706H206.442V36.9333H210.504C212.736 36.9333 213.995 38.0496 213.995 40.0093C213.995 41.2558 213.412 42.1489 212.426 42.6388L214.194 45.7706H211.329L209.958 43.1039ZM208.96 41.0574H210.194C210.95 41.0574 211.403 40.7411 211.403 40.0776C211.403 39.4016 210.963 39.1101 210.194 39.1101H208.96V41.0574Z" fill="white"/>
<path d="M222.963 44.3194H219.936L219.471 45.7644H216.991L219.924 36.9271H223.056L225.989 45.7644H223.416L222.963 44.3194ZM222.336 42.3597L221.58 39.9845L221.45 39.4263L221.301 39.9969L220.557 42.3597H222.336Z" fill="white"/>
<path d="M235.267 39.3209H232.836V45.7706H230.343V39.3209H227.85V36.9333H235.267V39.3209Z" fill="white"/>
<path d="M238.914 36.9333H241.438V45.7706H238.914V36.9333Z" fill="white"/>
<path d="M245.313 41.3922C245.313 38.4589 247.199 36.6976 249.853 36.6976C252.588 36.6976 254.393 38.3721 254.393 41.3178C254.393 44.2512 252.507 46 249.853 46C247.112 45.9938 245.313 44.338 245.313 41.3922ZM251.72 41.3488C251.72 39.8356 251 38.9736 249.847 38.9736C248.706 38.9736 247.999 39.8356 247.999 41.3488C247.999 42.862 248.675 43.7116 249.847 43.7116C250.988 43.7116 251.72 42.8744 251.72 41.3488Z" fill="white"/>
<path d="M266.107 36.9333V45.7706H263.589L260.656 40.8775L260.724 42.6016V45.7706H258.281V36.9333H260.935L263.72 41.5783L263.664 39.9845V36.9333H266.107Z" fill="white"/>
<defs>
<linearGradient id="paint0_linear_134_189" x1="6.23263" y1="25.9933" x2="19.2146" y2="25.9933" gradientUnits="userSpaceOnUse">
<stop stop-color="white"/>
<stop offset="0.5133" stop-color="#A6A8AB"/>
<stop offset="1" stop-color="white"/>
</linearGradient>
<linearGradient id="paint1_linear_134_189" x1="19.2923" y1="26.019" x2="32.6308" y2="26.019" gradientUnits="userSpaceOnUse">
<stop stop-color="white"/>
<stop offset="0.5133" stop-color="#A6A8AB"/>
<stop offset="1" stop-color="white"/>
</linearGradient>
<linearGradient id="paint2_linear_134_189" x1="32.8156" y1="26.019" x2="48.025" y2="26.019" gradientUnits="userSpaceOnUse">
<stop stop-color="white"/>
<stop offset="0.5133" stop-color="#A6A8AB"/>
<stop offset="1" stop-color="white"/>
</linearGradient>
<linearGradient id="paint3_linear_134_189" x1="12.8985" y1="20.7155" x2="12.8985" y2="30.4889" gradientUnits="userSpaceOnUse">
<stop stop-color="white"/>
<stop offset="0.5133" stop-color="#E5E6E7"/>
<stop offset="1" stop-color="white"/>
</linearGradient>
<linearGradient id="paint4_linear_134_189" x1="25.5835" y1="20.7155" x2="25.5835" y2="30.4889" gradientUnits="userSpaceOnUse">
<stop stop-color="white"/>
<stop offset="0.5133" stop-color="#E5E6E7"/>
<stop offset="1" stop-color="white"/>
</linearGradient>
<linearGradient id="paint5_linear_134_189" x1="39.5726" y1="20.7155" x2="39.5726" y2="30.4889" gradientUnits="userSpaceOnUse">
<stop stop-color="white"/>
<stop offset="0.5133" stop-color="#E5E6E7"/>
<stop offset="1" stop-color="white"/>
</linearGradient>
<linearGradient id="paint6_linear_134_189" x1="46.492" y1="18.6574" x2="51.7914" y2="18.6574" gradientUnits="userSpaceOnUse">
<stop stop-color="white"/>
<stop offset="0.5133" stop-color="#A6A8AB"/>
<stop offset="1" stop-color="white"/>
</linearGradient>
<linearGradient id="paint7_linear_134_189" x1="48.8466" y1="16.8095" x2="48.8466" y2="20.2149" gradientUnits="userSpaceOnUse">
<stop stop-color="white"/>
<stop offset="0.5133" stop-color="#E5E6E7"/>
<stop offset="1" stop-color="white"/>
</linearGradient>
</defs>
</svg>
