<svg width="120" height="148" viewBox="0 0 120 148" fill="none" xmlns="http://www.w3.org/2000/svg">
<path d="M104.416 94.9965C104.416 94.9965 103.523 90.1012 105.509 89.0053C107.498 87.9094 109.338 88.1651 109.338 88.1651L110.202 90.6711C116.082 81.52 119.496 70.6592 119.496 59.0056C119.496 26.4196 92.8588 0 59.9982 0C27.1375 0 0.5 26.4159 0.5 59.0056C0.5 76.4275 8.11489 92.0813 20.2186 102.884L20.9873 102.668V98.4743H31.3349L29.3819 86.9815C29.3819 86.9815 29.9722 85.2828 34.4646 85.2828C38.957 85.2828 40.3999 86.9815 40.3999 86.9815L42.0503 98.4743H46.5792V88.5341C46.5792 88.5341 53.8334 86.3422 58.1072 88.5341C58.1072 92.9909 58.1072 98.7592 58.1072 98.7592H62.4903V88.7532C62.4903 88.7532 63.7801 87.5623 68.3454 87.5623C72.9107 87.5623 74.1276 88.8263 74.1276 88.8263V98.5912H78.8059L80.4637 86.4189C80.4637 86.4189 87.7033 83.5402 90.9533 86.9888C89.4485 97.3016 89.3392 98.4779 89.3392 98.4779H99.8361V102.832C101.046 101.751 102.208 100.619 103.323 99.4423L104.416 94.9965Z" fill="#39B44A"/>
<path d="M95.7044 108.268L94.6478 110.716H109.24C109.24 110.716 113.353 97.6048 114.264 89.0711L107.965 88.4427C107.965 88.4427 105.833 90.4483 105.833 94.4741C105.833 95.4458 105.928 96.0376 105.928 96.0376L102.576 107.852H96.5606L95.7044 108.268Z" fill="#E5E6E7"/>
<path d="M24.4013 98.9601V103.143H28.697L33.0254 119.188H89.8201L94.4802 103.088H99.1584V99.0916L24.4013 98.9601Z" fill="#58595B"/>
<path d="M64.1481 98.9601V88.7532C64.1481 88.7532 70.2874 87.5805 73.4281 89.4985C73.4281 96.5125 73.4281 99.2049 73.4281 99.2049L64.1481 98.9601Z" fill="#808184"/>
<path d="M48.8163 98.719V88.8701C48.8163 88.8701 55.1633 86.7805 58.0963 89.5277C58.0963 96.1983 58.0963 99.0916 58.0963 99.0916L48.8163 98.719Z" fill="#E5E6E7"/>
<path d="M12.8368 110.57C12.8368 110.57 8.72336 96.9144 8.09668 88.724C11.8094 88.3222 16.5678 86.9303 16.5678 95.8257C16.5678 98.5364 19.5773 107.812 19.5773 107.812H27.0793L27.4582 110.942L12.8368 110.57Z" fill="#808184"/>
<path d="M102.671 110.716H100.882V122.399H102.671V110.716Z" fill="#231F20"/>
<path d="M110.096 111.611H92.3633V109.817H108.828C109.535 107.691 111.943 100.005 113.481 89.4985C111.783 89.3049 107.972 89.0382 105.582 90.1195C104.576 90.6164 104.518 93.8896 104.496 95.1207C104.489 95.6212 104.482 96.0157 104.445 96.2897C104.299 97.393 101.61 106.332 101.075 108.115L100.882 108.751H93.3944V106.957H99.5555C100.787 102.858 102.58 96.7573 102.674 96.0559C102.696 95.8842 102.704 95.5006 102.711 95.0915C102.747 92.9982 102.809 89.4912 104.824 88.4975C108.482 86.8463 114.395 87.8034 114.647 87.8436L115.507 87.9861L115.387 88.8519C113.568 101.905 110.348 110.932 110.315 111.019L110.096 111.611Z" fill="#231F20"/>
<path d="M74.4956 99.0916H72.7067V89.8747C68.1778 88.1541 64.1809 89.3486 62.8182 89.8637V99.0879H61.0293V88.713L61.5248 88.4646C61.7616 88.3477 67.369 85.6224 73.9527 88.4427L74.4956 88.6765V99.0916Z" fill="#231F20"/>
<path d="M19.2421 110.716H17.4531V122.399H19.2421V110.716Z" fill="#231F20"/>
<path d="M27.7606 111.611H10.0277L9.81276 111.019C9.77997 110.931 6.56276 101.905 4.74102 88.8518L4.62078 87.986L5.48064 87.8435C5.73204 87.7997 11.6418 86.8462 15.2743 88.4828C17.3183 89.4911 17.3766 92.9981 17.4131 95.0914C17.4204 95.5005 17.4277 95.8841 17.4495 96.0558C17.5406 96.7572 19.3368 102.858 20.5683 106.957H26.7295V108.751H19.2421L19.049 108.115C18.5098 106.332 15.8209 97.3965 15.6788 96.2896C15.6423 96.0156 15.6351 95.6247 15.6278 95.1243C15.6059 93.8932 15.5512 90.6163 14.5165 90.1085C12.1482 89.0381 8.34443 89.3085 6.64656 89.5021C8.18412 100.012 10.5888 107.695 11.2957 109.825H27.7606V111.611Z" fill="#231F20"/>
<path d="M59.0946 99.0916H57.3056V89.8674C55.943 89.3487 51.9461 88.1577 47.4172 89.8784V99.0953H45.6283V88.6838L46.1711 88.45C52.7549 85.6298 58.3659 88.355 58.5991 88.4719L59.0946 88.7203V99.0916Z" fill="#231F20"/>
<path d="M99.9855 104.034H19.938V98.2112H99.9855V104.034ZM21.727 102.241H98.1965V100.009H21.727V102.241Z" fill="#231F20"/>
<path d="M90.4614 120.543H29.473L24.4013 103.391L26.1137 102.88L30.8065 118.749H89.1242L93.7879 102.884L95.504 103.391L90.4614 120.543Z" fill="#231F20"/>
<path d="M82.2235 86.4627C82.2235 86.4627 80.522 103.811 77.5416 111.114C83.8521 111.114 86.4499 111.114 86.4499 111.114L90.5343 87.1677C90.5343 87.1714 86.6503 84.6909 82.2235 86.4627Z" fill="#BBBDBF"/>
<path d="M36.0095 110.942C36.0095 110.942 31.885 97.7509 31.6518 86.4335C33.7068 84.3731 40.2177 87.5221 40.2177 87.5221L44.874 110.939H36.0095V110.942Z" fill="#BBBDBF"/>
<path d="M78.2266 122.395H76.4376V110.219H85.6593C86.2896 108.593 88.2462 102.599 89.6781 87.8983C88.5814 87.2006 85.1966 85.5201 80.7114 87.8362C80.3398 90.788 78.3067 106.303 75.851 111.373L75.6069 111.878H64.957V110.084H74.4701C76.904 104.297 78.9735 87.3321 78.9953 87.1568L79.05 86.7038L79.4471 86.4809C86.1256 82.7328 90.9824 86.6015 91.1865 86.7695L91.5581 87.0727L91.5144 87.5476C89.7473 106.117 87.1604 111.311 87.0511 111.523L86.7997 112.009H78.2302V122.395H78.2266Z" fill="#231F20"/>
<path d="M75.2425 108.743H64.957V110.537H75.2425V108.743Z" fill="#231F20"/>
<path d="M43.6826 122.395H41.8937V112.013H33.3242L33.0728 111.527C32.9635 111.315 30.373 106.12 28.6059 87.5513L28.5622 87.0764L28.9338 86.7732C29.1378 86.6051 33.9946 82.7365 40.6731 86.4846L41.0702 86.7074L41.1249 87.1604C41.1468 87.3358 43.2163 104.301 45.6501 110.088H55.1633V111.881H44.5133L44.2692 111.377C41.8135 106.307 39.7768 90.7917 39.4088 87.8399C34.9528 85.5457 31.5425 87.2152 30.4458 87.9057C31.8741 102.595 33.8343 108.593 34.4646 110.223H43.6863V122.395H43.6826Z" fill="#231F20"/>
<path d="M55.1633 108.743H44.8777V110.537H55.1633V108.743Z" fill="#231F20"/>
<path d="M79.3852 110.219H64.957V112.013H79.3852V110.219Z" fill="#231F20"/>
<path d="M55.1633 110.219H40.5929V112.013H55.1633V110.219Z" fill="#231F20"/>
<path d="M40.0027 57.0002C41.6022 58.4541 42.4038 60.0834 42.4038 61.8917C42.4038 63.1703 41.9921 64.3868 41.165 65.5412C40.0136 67.1705 38.2648 68.4126 35.9111 69.2674C33.8343 70.02 31.5316 70.3963 29.0067 70.3963H20.051L14.0939 62.6698H29.5131C30.3875 62.6698 31.5025 63.3092 32.2749 63.1338C33.4262 62.8817 33.9982 62.4945 33.9982 61.9685C33.9982 61.4424 33.4226 61.0552 32.2749 60.8031C31.5025 60.6277 30.6754 60.5401 29.8046 60.5401H25.6146L19.8834 53.1753H29.535C30.2345 53.1753 31.1745 53.4383 31.7502 53.2338C32.5736 52.9269 32.989 52.4776 32.989 51.8858C32.989 51.2939 32.5773 50.8592 31.7502 50.5779C31.1745 50.3734 30.5369 50.2711 29.8374 50.2711H20.0546L14.4327 43.2351H29.003C31.5535 43.2351 33.8634 43.6625 35.9147 44.437C38.2648 45.3137 40.0173 46.5814 41.1686 48.2363C41.9957 49.4162 42.4074 50.6583 42.4074 51.9625C42.4038 53.8146 41.6022 55.4951 40.0027 57.0002Z" fill="url(#paint0_linear_138_2880)"/>
<path d="M69.7117 43.3081L64.3084 50.3075H58.9343C56.3073 50.3075 54.256 51.0491 52.7804 52.5287H62.545C65.3978 52.5287 67.6604 53.4456 69.3364 55.2758C70.8886 56.9563 71.6646 59.013 71.6646 61.446C71.6646 63.9046 70.8886 65.9722 69.3364 67.6527C67.6604 69.5085 65.3978 70.4364 62.545 70.4364H58.9343C54.205 70.4364 50.2992 69.1249 47.2095 66.5056C44.1199 63.8863 42.575 60.5948 42.575 56.6311C42.575 52.6675 44.1053 49.4564 47.1731 46.9978C50.2373 44.5392 54.1577 43.3118 58.9379 43.3118H69.7117V43.3081ZM62.545 63.4333C63.7218 63.4333 64.3084 62.7684 64.3084 61.4387C64.3084 60.9126 64.1845 60.4341 63.9331 60.0103C63.5834 59.4842 63.1206 59.2212 62.545 59.2212H51.3923C52.4926 62.0305 55.0066 63.4333 58.9343 63.4333H62.545Z" fill="url(#paint1_linear_138_2880)"/>
<path d="M105.236 56.6239C105.236 60.5876 103.691 63.8791 100.601 66.4984C97.5115 69.1214 93.6167 70.4292 88.9129 70.4292H88.4283C83.6991 70.4292 79.7896 69.1177 76.7036 66.4984C73.6139 63.8791 72.0691 60.5876 72.0691 56.6239C72.0691 52.6603 73.5993 49.4492 76.6671 46.9906C79.7313 44.532 83.6517 43.3046 88.432 43.3046H88.9166C93.6932 43.3046 97.6099 44.532 100.663 46.9906C103.709 49.4528 105.236 52.6639 105.236 56.6239ZM88.4466 50.304C86.1256 50.304 84.2128 50.925 82.7153 52.1708C81.2179 53.4165 80.4673 55.0056 80.4673 56.9454C80.4673 58.8816 81.2142 60.4488 82.7153 61.6434C84.2128 62.8379 86.122 63.4334 88.4466 63.4334H88.9275C91.2484 63.4334 93.1576 62.8379 94.655 61.6434C96.1525 60.4488 96.9031 58.8816 96.9031 56.9454C96.9031 55.0092 96.1489 53.4165 94.6368 52.1708C93.1284 50.925 91.2229 50.304 88.9275 50.304H88.4466Z" fill="url(#paint2_linear_138_2880)"/>
<path d="M39.7331 56.5179C41.2816 57.9244 42.0576 59.5026 42.0576 61.2488C42.0576 62.4872 41.6569 63.6635 40.8589 64.7814C39.744 66.3595 38.0498 67.5614 35.7763 68.3834C33.7651 69.1103 31.5389 69.4757 29.0977 69.4757H20.4299L15.2015 62.7064H29.8629C30.7082 62.7064 31.5061 62.6224 32.2566 62.4507C33.3679 62.2096 33.9254 61.8333 33.9254 61.3218C33.9254 60.814 33.3679 60.4378 32.2566 60.193C31.5097 60.025 30.7118 59.9373 29.8665 59.9373H25.8113L20.5574 53.168H29.8957C30.5734 53.168 31.1891 53.0694 31.7466 52.8684C32.5445 52.5689 32.9453 52.1342 32.9453 51.5643C32.9453 50.9944 32.5445 50.5706 31.7466 50.2966C31.1891 50.0994 30.5734 49.9971 29.8957 49.9971H20.4299L15.2015 43.2278H29.0941C31.5644 43.2278 33.7906 43.6041 35.7726 44.3566C38.0462 45.2078 39.7404 46.4316 40.8553 48.0353C41.6532 49.1751 42.054 50.377 42.054 51.6373C42.0576 53.4383 41.2816 55.064 39.7331 56.5179Z" fill="url(#paint3_linear_138_2880)"/>
<path d="M68.4766 43.2679L63.2482 50.0372H58.0489C55.5094 50.0372 53.5237 50.7532 52.0955 52.1853H61.543C64.3011 52.1853 66.4909 53.073 68.1122 54.8411C69.6134 56.4668 70.3639 58.4577 70.3639 60.8104C70.3639 63.1886 69.6134 65.1905 68.1122 66.8161C66.4909 68.6135 64.3011 69.5085 61.543 69.5085H58.0489C53.4763 69.5085 49.6944 68.2409 46.7031 65.7056C43.7118 63.1703 42.218 59.9847 42.218 56.1489C42.218 52.3131 43.7009 49.208 46.6667 46.8298C49.6325 44.4516 53.4253 43.2643 58.0489 43.2643H68.4766V43.2679ZM61.543 62.7429C62.6798 62.7429 63.2482 62.0999 63.2482 60.814C63.2482 60.3062 63.1279 59.8423 62.8875 59.4295C62.5486 58.918 62.1005 58.666 61.543 58.666H50.751C51.8149 61.3839 54.2488 62.7429 58.0489 62.7429H61.543Z" fill="url(#paint4_linear_138_2880)"/>
<path d="M102.849 56.1563C102.849 59.9921 101.355 63.1776 98.3641 65.7129C95.3765 68.2482 91.6054 69.5158 87.0547 69.5158H86.5847C82.0121 69.5158 78.2266 68.2482 75.2389 65.7129C72.2512 63.1776 70.7538 59.9921 70.7538 56.1563C70.7538 52.3205 72.2366 49.2153 75.2024 46.8371C78.1682 44.4589 81.9611 43.2716 86.5847 43.2716H87.0547C91.6783 43.2716 95.4639 44.4625 98.4188 46.8371C101.37 49.2153 102.849 52.3205 102.849 56.1563ZM86.6066 50.0409C84.3586 50.0409 82.5113 50.6437 81.0648 51.8492C79.6147 53.0547 78.8897 54.5927 78.8897 56.4668C78.8897 58.3408 79.6147 59.8569 81.0648 61.0113C82.5149 62.1657 84.3622 62.7465 86.6066 62.7465H87.0729C89.321 62.7465 91.1682 62.1693 92.6147 61.0113C94.0648 59.8569 94.7899 58.3408 94.7899 56.4668C94.7899 54.5927 94.0575 53.0547 92.5965 51.8492C91.1354 50.6437 89.2918 50.0409 87.0729 50.0409H86.6066Z" fill="url(#paint5_linear_138_2880)"/>
<path d="M113.448 40.6925C113.448 42.0734 112.909 43.2204 111.834 44.1337C110.759 45.047 109.4 45.5037 107.761 45.5037H107.593C105.946 45.5037 104.584 45.047 103.509 44.1337C102.434 43.2204 101.895 42.0734 101.895 40.6925C101.895 39.3116 102.43 38.1937 103.498 37.3352C104.565 36.4804 105.932 36.0493 107.597 36.0493H107.764C109.429 36.0493 110.792 36.4767 111.856 37.3352C112.916 38.1937 113.448 39.3152 113.448 40.6925ZM107.6 38.4933C106.792 38.4933 106.125 38.7088 105.604 39.1435C105.083 39.5783 104.82 40.1335 104.82 40.8057C104.82 41.4816 105.083 42.0259 105.604 42.4423C106.125 42.8588 106.792 43.067 107.6 43.067H107.768C108.577 43.067 109.244 42.8588 109.765 42.4423C110.286 42.0259 110.548 41.4816 110.548 40.8057C110.548 40.1299 110.286 39.5746 109.757 39.1435C109.233 38.7088 108.566 38.4933 107.768 38.4933H107.6Z" fill="url(#paint6_linear_138_2880)"/>
<path d="M112.617 40.5317C112.617 41.8688 112.096 42.9793 111.054 43.8597C110.012 44.7438 108.701 45.1858 107.112 45.1858H106.948C105.356 45.1858 104.037 44.7438 102.995 43.8597C101.953 42.9757 101.432 41.8651 101.432 40.5317C101.432 39.1947 101.949 38.1133 102.98 37.2841C104.012 36.4548 105.334 36.042 106.945 36.042H107.108C108.719 36.042 110.038 36.4548 111.069 37.2841C112.104 38.1133 112.617 39.1947 112.617 40.5317ZM106.959 38.3983C106.176 38.3983 105.531 38.6065 105.028 39.0266C104.522 39.4467 104.27 39.9837 104.27 40.634C104.27 41.2879 104.522 41.814 105.028 42.2195C105.535 42.6213 106.176 42.8222 106.959 42.8222H107.123C107.906 42.8222 108.548 42.6213 109.054 42.2195C109.561 41.8176 109.812 41.2879 109.812 40.634C109.812 39.9801 109.557 39.4431 109.047 39.0266C108.537 38.6101 107.895 38.3983 107.123 38.3983H106.959Z" fill="url(#paint7_linear_138_2880)"/>
<path d="M10.8694 136.036C10.8694 138.432 8.96747 139.923 5.71383 139.923C2.4019 139.923 0.878923 138.754 0.5 136.113L3.7172 135.66C3.94309 136.566 4.48961 136.887 5.67375 136.887C6.85788 136.887 7.48092 136.489 7.48092 135.718C7.48092 134.984 6.95262 134.549 5.71383 134.549H4.19085V131.985H5.22561C6.56277 131.985 7.12751 131.608 7.12751 130.852C7.12751 130.228 6.62105 129.796 5.60452 129.796C4.60621 129.796 4.00503 130.136 3.79735 130.965L0.616583 130.531C0.991863 128.116 2.7626 126.739 5.75391 126.739C8.65048 126.739 10.3811 128.079 10.3811 130.173C10.3811 131.437 9.92935 132.397 8.70513 133.004C10.0059 133.395 10.8694 134.337 10.8694 136.036Z" fill="white"/>
<path d="M22.9876 135.452C22.9876 138.337 20.7687 139.923 17.6062 139.923C13.9554 139.923 12.13 137.903 12.13 133.49C12.13 128.923 14.3307 126.735 17.8321 126.735C20.5028 126.735 22.197 127.886 22.6488 130.527L19.2421 130.98C19.0344 130.133 18.5462 129.698 17.6426 129.716C16.4949 129.734 15.7626 130.396 15.799 132.924C16.5314 132.036 17.7191 131.641 19.111 131.641C21.6322 131.641 22.9876 133.132 22.9876 135.452ZM19.5627 135.583C19.5627 134.754 18.885 134.282 17.8138 134.282C16.9285 134.282 16.065 134.699 16.065 135.623C16.065 136.452 16.7973 136.924 17.8321 136.924C18.8486 136.924 19.5627 136.452 19.5627 135.583Z" fill="white"/>
<path d="M24.2264 133.376C24.2264 129.227 26.3906 126.717 29.9649 126.717C33.6703 126.717 35.7034 129.037 35.7034 133.3C35.7034 137.45 33.5756 139.941 29.9467 139.941C26.2595 139.941 24.2264 137.621 24.2264 133.376ZM31.885 133.318C31.885 130.79 31.2255 129.734 29.9649 129.734C28.7225 129.734 28.0448 130.772 28.0448 133.318C28.0448 135.864 28.7043 136.92 29.9649 136.92C31.2073 136.924 31.885 135.868 31.885 133.318Z" fill="white"/>
<path d="M49.1442 133.281C49.1442 137.263 46.5646 139.62 42.371 139.62H37.4049V127.053H42.4839C46.6411 127.057 49.1442 129.281 49.1442 133.281ZM45.3441 133.376C45.3441 131.188 44.251 130.151 42.1815 130.132L40.9755 130.114V136.511L42.2179 136.529C44.251 136.525 45.3441 135.546 45.3441 133.376Z" fill="white"/>
<path d="M59.9982 136.657V139.62H50.8712V127.053H59.8087V129.997H54.4455V131.696H59.3751V134.64H54.4455V136.661H59.9982V136.657Z" fill="white"/>
<path d="M73.02 132.566V139.623H70.3275L70.138 138.849C69.2344 139.601 68.0503 139.941 66.6366 139.941C63.4012 139.941 61.0293 137.698 61.0293 133.472C61.0293 129.227 63.5324 126.735 67.2378 126.735C70.4368 126.735 72.3751 128.339 72.8451 131.188L69.3073 131.641C69.0814 130.509 68.309 129.961 67.2196 129.961C65.7877 129.961 64.8477 131.148 64.8477 133.336C64.8477 135.601 65.7513 136.694 67.1795 136.694C68.8154 136.694 69.4385 135.919 69.719 135.298H67.46V132.562H73.02V132.566Z" fill="white"/>
<path d="M79.9426 135.828H78.5326V139.62H74.9583V127.053H80.7151C83.8776 127.053 85.6629 128.638 85.6629 131.429C85.6629 133.201 84.8358 134.469 83.444 135.167L85.9471 139.62H81.8846L79.9426 135.828ZM78.5326 132.923H80.2815C81.3527 132.923 81.9939 132.47 81.9939 131.528C81.9939 130.564 81.3745 130.151 80.2815 130.151H78.5326V132.923Z" fill="white"/>
<path d="M96.6335 136.657V139.62H87.5065V127.053H96.444V129.997H91.0808V131.696H96.0104V134.64H91.0808V136.661H96.6335V136.657Z" fill="white"/>
<path d="M107.604 136.657V139.62H98.4771V127.053H107.415V129.997H102.051V131.696H106.981V134.64H102.051V136.661H107.604V136.657Z" fill="white"/>
<path d="M108.693 136.036L112.155 135.547C112.362 136.584 113.04 136.982 114.224 136.982C115.354 136.982 115.918 136.737 115.918 136.04C115.918 135.342 115.448 135.152 113.095 134.757C110.781 134.381 108.897 133.588 108.897 130.889C108.897 128.248 110.909 126.739 114.071 126.739C117.062 126.739 118.739 127.93 119.15 130.454L115.689 130.944C115.518 130.001 114.844 129.716 113.9 129.716C112.942 129.716 112.508 130.056 112.508 130.564C112.508 131.148 112.902 131.375 115.292 131.809C118.152 132.317 119.489 133.395 119.489 135.791C119.489 138.582 117.496 139.941 114.013 139.941C110.781 139.941 109.032 138.772 108.693 136.036Z" fill="white"/>
<path d="M0.5 146.301L1.93554 146.097C2.02298 146.528 2.30352 146.692 2.79175 146.692C3.25811 146.692 3.49495 146.59 3.49495 146.301C3.49495 146.013 3.30184 145.932 2.32538 145.771C1.36714 145.614 0.58744 145.286 0.58744 144.168C0.58744 143.075 1.4218 142.447 2.72981 142.447C3.9686 142.447 4.66451 142.94 4.83575 143.985L3.40021 144.19C3.33099 143.799 3.05044 143.682 2.66059 143.682C2.26345 143.682 2.08491 143.821 2.08491 144.033C2.08491 144.274 2.24887 144.369 3.2399 144.548C4.42403 144.76 4.97784 145.205 4.97784 146.195C4.97784 147.353 4.15078 147.916 2.70795 147.916C1.36715 147.92 0.642096 147.434 0.5 146.301Z" fill="white"/>
<path d="M9.73989 145.636V147.784H8.26791V145.618L6.4826 142.579H8.08939L9.05491 144.431L9.984 142.579H11.5033L9.73989 145.636Z" fill="white"/>
<path d="M13.0555 146.301L14.491 146.097C14.5784 146.528 14.859 146.692 15.3472 146.692C15.8136 146.692 16.0504 146.59 16.0504 146.301C16.0504 146.013 15.8573 145.932 14.8808 145.771C13.9226 145.614 13.1429 145.286 13.1429 144.168C13.1429 143.075 13.9773 142.447 15.2853 142.447C16.5241 142.447 17.22 142.94 17.3912 143.985L15.9557 144.19C15.8864 143.799 15.6059 143.682 15.2161 143.682C14.8189 143.682 14.6404 143.821 14.6404 144.033C14.6404 144.274 14.8043 144.369 15.7954 144.548C16.9795 144.76 17.5333 145.205 17.5333 146.195C17.5333 147.353 16.7062 147.916 15.2634 147.916C13.919 147.92 13.1939 147.434 13.0555 146.301Z" fill="white"/>
<path d="M23.6252 143.989H22.197V147.788H20.7323V143.989H19.2676V142.582H23.6252V143.989Z" fill="white"/>
<path d="M29.5532 146.561V147.788H25.7712V142.582H29.473V143.802H27.2505V144.507H29.2945V145.728H27.2505V146.564H29.5532V146.561Z" fill="white"/>
<path d="M37.7 147.788H36.3592V145.359L36.4066 144.274L35.4156 147.722H34.1221L33.1311 144.299L33.1785 145.362V147.792H31.8777V142.586H33.9363L34.778 145.728L34.7998 145.914L34.8326 145.728L35.6742 142.586H37.7V147.788Z" fill="white"/>
<path d="M39.9444 146.301L41.38 146.097C41.4674 146.528 41.7479 146.692 42.2362 146.692C42.7025 146.692 42.9394 146.59 42.9394 146.301C42.9394 146.013 42.7462 145.932 41.7698 145.771C40.8116 145.614 40.0319 145.286 40.0319 144.168C40.0319 143.075 40.8662 142.447 42.1742 142.447C43.413 142.447 44.1089 142.94 44.2802 143.985L42.8446 144.19C42.7754 143.799 42.4949 143.682 42.105 143.682C41.7079 143.682 41.5293 143.821 41.5293 144.033C41.5293 144.274 41.6933 144.369 42.6843 144.548C43.8684 144.76 44.4223 145.205 44.4223 146.195C44.4223 147.353 43.5952 147.916 42.1524 147.916C40.8116 147.92 40.0865 147.434 39.9444 146.301Z" fill="white"/>
<path d="M49.3555 145.216C49.3555 143.514 50.4231 142.451 51.8732 142.451C53.1448 142.451 54.0083 143.028 54.1649 144.35L52.7622 144.537C52.6602 143.996 52.3505 143.788 51.8951 143.788C51.3485 143.788 50.9368 144.263 50.9368 145.18C50.9368 146.14 51.3267 146.579 51.8951 146.579C52.3541 146.579 52.6748 146.374 52.7986 145.804L54.1941 145.991C54.0374 147.302 53.0865 147.923 51.8149 147.923C50.4012 147.92 49.3555 146.988 49.3555 145.216Z" fill="white"/>
<path d="M56.0924 145.209C56.0924 143.481 57.2 142.443 58.7594 142.443C60.3662 142.443 61.4264 143.43 61.4264 145.165C61.4264 146.893 60.3188 147.923 58.7594 147.923C57.1526 147.92 56.0924 146.944 56.0924 145.209ZM59.8597 145.183C59.8597 144.292 59.4371 143.784 58.7594 143.784C58.089 143.784 57.6773 144.292 57.6773 145.183C57.6773 146.075 58.0744 146.575 58.7594 146.575C59.4298 146.575 59.8597 146.082 59.8597 145.183Z" fill="white"/>
<path d="M65.7767 146.217H65.1938V147.788H63.7109V142.582H66.0974C67.409 142.582 68.1487 143.24 68.1487 144.394C68.1487 145.129 67.8062 145.655 67.2269 145.943L68.2653 147.788H66.582L65.7767 146.217ZM65.1901 145.012H65.9152C66.3597 145.012 66.6257 144.825 66.6257 144.434C66.6257 144.036 66.367 143.865 65.9152 143.865H65.1901V145.012Z" fill="white"/>
<path d="M74.9292 144.497C74.9292 145.739 74.1276 146.444 72.7613 146.444H71.9124V147.788H70.4295V142.582H72.8087C74.2041 142.582 74.9292 143.254 74.9292 144.497ZM72.6374 143.861H71.9124V145.158H72.6374C73.1293 145.158 73.4171 144.946 73.4244 144.5C73.4317 144.065 73.1184 143.861 72.6374 143.861Z" fill="white"/>
<path d="M76.8238 145.209C76.8238 143.481 77.9314 142.443 79.4908 142.443C81.0976 142.443 82.1579 143.43 82.1579 145.165C82.1579 146.893 81.0503 147.923 79.4908 147.923C77.8841 147.92 76.8238 146.944 76.8238 145.209ZM80.5875 145.183C80.5875 144.292 80.1649 143.784 79.4872 143.784C78.8168 143.784 78.4051 144.292 78.4051 145.183C78.4051 146.075 78.8022 146.575 79.4872 146.575C80.1612 146.575 80.5875 146.082 80.5875 145.183Z" fill="white"/>
<path d="M86.5082 146.217H85.9252V147.788H84.4424V142.582H86.8288C88.1405 142.582 88.8801 143.24 88.8801 144.394C88.8801 145.129 88.5376 145.655 87.9583 145.943L88.9967 147.788H87.3134L86.5082 146.217ZM85.9216 145.012H86.6467C87.0912 145.012 87.3572 144.825 87.3572 144.434C87.3572 144.036 87.0985 143.865 86.6467 143.865H85.9216V145.012Z" fill="white"/>
<path d="M94.1486 146.933H92.3706L92.0973 147.784H90.6399L92.3633 142.579H94.2033L95.9266 147.784H94.4146L94.1486 146.933ZM93.7806 145.779L93.3361 144.38L93.2596 144.051L93.1721 144.387L92.7349 145.779H93.7806Z" fill="white"/>
<path d="M101.377 143.989H99.949V147.788H98.4844V143.989H97.0197V142.582H101.377V143.989Z" fill="white"/>
<path d="M103.52 142.582H105.003V147.788H103.52V142.582Z" fill="white"/>
<path d="M107.28 145.209C107.28 143.481 108.387 142.443 109.947 142.443C111.554 142.443 112.614 143.43 112.614 145.165C112.614 146.893 111.506 147.923 109.947 147.923C108.336 147.92 107.28 146.944 107.28 145.209ZM111.043 145.183C111.043 144.292 110.621 143.784 109.943 143.784C109.273 143.784 108.857 144.292 108.857 145.183C108.857 146.075 109.255 146.575 109.943 146.575C110.614 146.575 111.043 146.082 111.043 145.183Z" fill="white"/>
<path d="M119.496 142.582V147.788H118.017L116.294 144.906L116.334 145.921V147.788H114.898V142.582H116.458L118.094 145.318L118.061 144.38V142.582H119.496Z" fill="white"/>
<defs>
<linearGradient id="paint0_linear_138_2880" x1="14.0922" y1="56.8135" x2="42.4039" y2="56.8135" gradientUnits="userSpaceOnUse">
<stop stop-color="white"/>
<stop offset="0.5133" stop-color="#A6A8AB"/>
<stop offset="1" stop-color="white"/>
</linearGradient>
<linearGradient id="paint1_linear_138_2880" x1="42.5735" y1="56.8697" x2="71.6629" y2="56.8697" gradientUnits="userSpaceOnUse">
<stop stop-color="white"/>
<stop offset="0.5133" stop-color="#A6A8AB"/>
<stop offset="1" stop-color="white"/>
</linearGradient>
<linearGradient id="paint2_linear_138_2880" x1="72.0661" y1="56.8698" x2="105.236" y2="56.8698" gradientUnits="userSpaceOnUse">
<stop stop-color="white"/>
<stop offset="0.5133" stop-color="#A6A8AB"/>
<stop offset="1" stop-color="white"/>
</linearGradient>
<linearGradient id="paint3_linear_138_2880" x1="28.6295" y1="45.2777" x2="28.6295" y2="66.6394" gradientUnits="userSpaceOnUse">
<stop stop-color="white"/>
<stop offset="0.5133" stop-color="#E5E6E7"/>
<stop offset="1" stop-color="white"/>
</linearGradient>
<linearGradient id="paint4_linear_138_2880" x1="56.2935" y1="45.2777" x2="56.2935" y2="66.6393" gradientUnits="userSpaceOnUse">
<stop stop-color="white"/>
<stop offset="0.5133" stop-color="#E5E6E7"/>
<stop offset="1" stop-color="white"/>
</linearGradient>
<linearGradient id="paint5_linear_138_2880" x1="86.8022" y1="45.2777" x2="86.8022" y2="66.6394" gradientUnits="userSpaceOnUse">
<stop stop-color="white"/>
<stop offset="0.5133" stop-color="#E5E6E7"/>
<stop offset="1" stop-color="white"/>
</linearGradient>
<linearGradient id="paint6_linear_138_2880" x1="101.892" y1="40.7795" x2="113.449" y2="40.7795" gradientUnits="userSpaceOnUse">
<stop stop-color="white"/>
<stop offset="0.5133" stop-color="#A6A8AB"/>
<stop offset="1" stop-color="white"/>
</linearGradient>
<linearGradient id="paint7_linear_138_2880" x1="107.027" y1="36.7404" x2="107.027" y2="44.1835" gradientUnits="userSpaceOnUse">
<stop stop-color="white"/>
<stop offset="0.5133" stop-color="#E5E6E7"/>
<stop offset="1" stop-color="white"/>
</linearGradient>
</defs>
</svg>
