<svg width="267" height="56" viewBox="0 0 267 56" fill="none" xmlns="http://www.w3.org/2000/svg">
<path d="M47.6492 43.4629C47.6492 43.4629 47.2399 41.2232 48.1504 40.7218C49.0626 40.2204 49.9063 40.3374 49.9063 40.3374L50.3022 41.484C52.9987 37.2971 54.5641 32.3281 54.5641 26.9963C54.5641 12.0875 42.3498 0 27.2821 0C12.2143 0 0 12.0858 0 26.9963C0 34.9672 3.4917 42.1291 9.04167 47.0714L9.39418 46.9728V45.0541H14.1389L13.2434 39.7959C13.2434 39.7959 13.5141 39.0187 15.574 39.0187C17.6339 39.0187 18.2955 39.7959 18.2955 39.7959L19.0523 45.0541H21.129V40.5062C21.129 40.5062 24.4553 39.5034 26.415 40.5062C26.415 42.5453 26.415 45.1844 26.415 45.1844H28.4248V40.6065C28.4248 40.6065 29.0162 40.0616 31.1096 40.0616C33.2029 40.0616 33.7609 40.6399 33.7609 40.6399V45.1075H35.9061L36.6662 39.5385C36.6662 39.5385 39.9858 38.2214 41.4761 39.7992C40.7861 44.5175 40.736 45.0557 40.736 45.0557H45.5492V47.048C46.1038 46.5533 46.6368 46.0352 47.148 45.497L47.6492 43.4629Z" fill="#39B44A"/>
<path d="M43.6544 49.535L43.1699 50.6548H49.861C49.861 50.6548 51.7471 44.6562 52.1648 40.7518L49.2762 40.4644C49.2762 40.4644 48.2989 41.3819 48.2989 43.2238C48.2989 43.6684 48.3423 43.9392 48.3423 43.9392L46.8053 49.3445H44.047L43.6544 49.535Z" fill="#E5E6E7"/>
<path d="M10.9595 45.2764V47.1901H12.9292L14.914 54.5309H40.9564L43.0932 47.165H45.2383V45.3365L10.9595 45.2764Z" fill="#58595B"/>
<path d="M29.1851 45.2763V40.6065C29.1851 40.6065 32.0001 40.0699 33.4403 40.9474C33.4403 44.1565 33.4403 45.3883 33.4403 45.3883L29.1851 45.2763Z" fill="#808184"/>
<path d="M22.1548 45.166V40.6599C22.1548 40.6599 25.0651 39.7039 26.41 40.9608C26.41 44.0128 26.41 45.3365 26.41 45.3365L22.1548 45.166Z" fill="#E5E6E7"/>
<path d="M5.65694 50.588C5.65694 50.588 3.77075 44.3403 3.4834 40.5931C5.18581 40.4092 7.3677 39.7724 7.3677 43.8423C7.3677 45.0824 8.74768 49.3261 8.74768 49.3261H12.1876L12.3613 50.7585L5.65694 50.588Z" fill="#808184"/>
<path d="M46.8491 50.6549H46.0288V56H46.8491V50.6549Z" fill="#231F20"/>
<path d="M50.2537 51.0644H42.1226V50.2437H49.6723C49.9964 49.271 51.1007 45.7544 51.8058 40.9474C51.0272 40.8589 49.2797 40.7368 48.1837 41.2316C47.7226 41.4589 47.6959 42.9565 47.6859 43.5197C47.6825 43.7487 47.6792 43.9292 47.6625 44.0546C47.5957 44.5593 46.3627 48.6492 46.1171 49.4649L46.0286 49.7557H42.5954V48.935H45.4205C45.9851 47.0597 46.8071 44.2685 46.8506 43.9476C46.8606 43.869 46.8639 43.6935 46.8673 43.5063C46.884 42.5486 46.9124 40.9441 47.8363 40.4895C49.5136 39.734 52.2251 40.1719 52.3404 40.1903L52.7347 40.2555L52.6795 40.6516C51.8459 46.6235 50.369 50.7535 50.354 50.7936L50.2537 51.0644Z" fill="#231F20"/>
<path d="M33.9297 45.3366H33.1094V41.1196C31.0327 40.3324 29.2 40.879 28.5752 41.1146V45.3349H27.7549V40.5881L27.9821 40.4745C28.0907 40.421 30.6618 39.1741 33.6807 40.4645L33.9297 40.5714V45.3366Z" fill="#231F20"/>
<path d="M8.59374 50.6549H7.77344V56H8.59374V50.6549Z" fill="#231F20"/>
<path d="M12.5001 51.0644H4.36892L4.27035 50.7937C4.25532 50.7535 2.78011 46.6235 1.94478 40.6516L1.88965 40.2555L2.28392 40.1903C2.3992 40.1703 5.10903 39.7341 6.77469 40.4828C7.71193 40.9441 7.73866 42.5487 7.75537 43.5064C7.75871 43.6936 7.76206 43.8691 7.77208 43.9476C7.81385 44.2685 8.63749 47.0598 9.20218 48.9351H12.0273V49.7557H8.59405L8.5055 49.4649C8.25824 48.6493 7.02529 44.561 6.96013 44.0546C6.94342 43.9292 6.94009 43.7504 6.93675 43.5214C6.92672 42.9582 6.90166 41.4589 6.42719 41.2266C5.34125 40.7369 3.59707 40.8606 2.81854 40.9492C3.52356 45.7578 4.62621 49.2727 4.95032 50.2471H12.5001V51.0644Z" fill="#231F20"/>
<path d="M26.8677 45.3365H26.0474V41.1163C25.4225 40.8789 23.5898 40.334 21.5132 41.1213V45.3382H20.6929V40.5747L20.9418 40.4678C23.9607 39.1774 26.5335 40.4243 26.6405 40.4778L26.8677 40.5914V45.3365Z" fill="#231F20"/>
<path d="M45.6177 47.5979H8.91309V44.9337H45.6177V47.5979ZM9.73339 46.7773H44.7974V45.756H9.73339V46.7773Z" fill="#231F20"/>
<path d="M41.2504 55.1509H13.2851L10.9595 47.3037L11.7447 47.0697L13.8965 54.3302H40.6373L42.7757 47.0714L43.5626 47.3037L41.2504 55.1509Z" fill="#231F20"/>
<path d="M37.473 39.5585C37.473 39.5585 36.6928 47.496 35.3262 50.8371C38.2198 50.8371 39.411 50.8371 39.411 50.8371L41.2838 39.8811C41.2838 39.8828 39.5028 38.7479 37.473 39.5585Z" fill="#BBBDBF"/>
<path d="M16.2823 50.7585C16.2823 50.7585 14.3911 44.7231 14.2842 39.5451C15.2264 38.6025 18.2119 40.0432 18.2119 40.0432L20.347 50.7568H16.2823V50.7585Z" fill="#BBBDBF"/>
<path d="M35.6403 55.9983H34.8199V50.4276H39.0484C39.3374 49.6838 40.2346 46.9411 40.8912 40.2154C40.3883 39.8961 38.8362 39.1273 36.7797 40.187C36.6092 41.5375 35.677 48.6359 34.551 50.9557L34.439 51.1864H29.5557V50.3657H33.9178C35.0338 47.7183 35.9827 39.9563 35.9928 39.8761L36.0178 39.6688L36.1999 39.5669C39.2623 37.852 41.4893 39.622 41.5828 39.6989L41.7532 39.8376L41.7332 40.0549C40.9229 48.5506 39.7367 50.9273 39.6866 51.0243L39.5713 51.2466H35.6419V55.9983H35.6403Z" fill="#231F20"/>
<path d="M34.272 49.7523H29.5557V50.573H34.272V49.7523Z" fill="#231F20"/>
<path d="M19.801 55.9984H18.9807V51.2483H15.0512L14.936 51.026C14.8858 50.929 13.698 48.5523 12.8877 40.0566L12.8677 39.8394L13.0381 39.7006C13.1316 39.6237 15.3586 37.8537 18.421 39.5686L18.6031 39.6705L18.6281 39.8778C18.6382 39.958 19.5871 47.72 20.7031 50.3675H25.0652V51.1881H20.1819L20.0699 50.9575C18.9439 48.6376 18.01 41.5392 17.8413 40.1887C15.798 39.139 14.2343 39.9029 13.7314 40.2188C14.3863 46.9394 15.2851 49.6839 15.5742 50.4293H19.8026V55.9984H19.801Z" fill="#231F20"/>
<path d="M25.0649 49.7523H20.3486V50.573H25.0649V49.7523Z" fill="#231F20"/>
<path d="M36.1715 50.4276H29.5557V51.2483H36.1715V50.4276Z" fill="#231F20"/>
<path d="M25.0653 50.4276H18.3843V51.2483H25.0653V50.4276Z" fill="#231F20"/>
<path d="M18.1135 26.0787C18.847 26.7439 19.2145 27.4893 19.2145 28.3167C19.2145 28.9017 19.0257 29.4582 18.6465 29.9864C18.1185 30.7318 17.3166 31.3001 16.2374 31.6912C15.2851 32.0355 14.2292 32.2077 13.0715 32.2077H8.96494L6.2334 28.6727H13.3037C13.7046 28.6727 14.2159 28.9652 14.57 28.885C15.098 28.7696 15.3603 28.5925 15.3603 28.3518C15.3603 28.1111 15.0963 27.9339 14.57 27.8186C14.2159 27.7384 13.8366 27.6983 13.4373 27.6983H11.5161L8.8881 24.3287H13.3137C13.6345 24.3287 14.0655 24.4491 14.3295 24.3555C14.707 24.2151 14.8975 24.0095 14.8975 23.7387C14.8975 23.468 14.7087 23.2691 14.3295 23.1404C14.0655 23.0468 13.7731 23 13.4524 23H8.96661L6.38877 19.7809H13.0698C14.2392 19.7809 15.2985 19.9764 16.239 20.3308C17.3166 20.7319 18.1202 21.3119 18.6482 22.069C19.0274 22.6089 19.2162 23.1772 19.2162 23.7738C19.2145 24.6212 18.847 25.3901 18.1135 26.0787Z" fill="url(#paint0_linear_128_142)"/>
<path d="M31.7361 19.8143L29.2585 23.0167H26.7943C25.5897 23.0167 24.6491 23.356 23.9725 24.0329H28.4499C29.758 24.0329 30.7955 24.4524 31.564 25.2898C32.2758 26.0587 32.6316 26.9997 32.6316 28.1128C32.6316 29.2376 32.2758 30.1837 31.564 30.9525C30.7955 31.8016 29.758 32.2261 28.4499 32.2261H26.7943C24.6258 32.2261 22.8348 31.6261 21.4181 30.4277C20.0013 29.2293 19.293 27.7234 19.293 25.9099C19.293 24.0964 19.9946 22.6273 21.4014 21.5024C22.8064 20.3776 24.604 19.816 26.796 19.816H31.7361V19.8143ZM28.4499 29.022C28.9895 29.022 29.2585 28.7178 29.2585 28.1095C29.2585 27.8688 29.2017 27.6498 29.0864 27.4559C28.9261 27.2153 28.7139 27.0949 28.4499 27.0949H23.336C23.8405 28.3802 24.9933 29.022 26.7943 29.022H28.4499Z" fill="url(#paint1_linear_128_142)"/>
<path d="M48.025 25.9065C48.025 27.72 47.3166 29.2259 45.8999 30.4243C44.4832 31.6243 42.6972 32.2227 40.5404 32.2227H40.3182C38.1497 32.2227 36.3571 31.6227 34.942 30.4243C33.5253 29.2259 32.8169 27.72 32.8169 25.9065C32.8169 24.0931 33.5186 22.6239 34.9253 21.4991C36.3303 20.3742 38.128 19.8126 40.3199 19.8126H40.5421C42.7323 19.8126 44.5283 20.3742 45.9283 21.4991C47.325 22.6256 48.025 24.0947 48.025 25.9065ZM40.3266 23.015C39.2623 23.015 38.3852 23.2991 37.6986 23.8691C37.012 24.439 36.6678 25.1661 36.6678 26.0536C36.6678 26.9394 37.0103 27.6565 37.6986 28.203C38.3852 28.7496 39.2607 29.022 40.3266 29.022H40.5471C41.6113 29.022 42.4867 28.7496 43.1734 28.203C43.86 27.6565 44.2042 26.9394 44.2042 26.0536C44.2042 25.1678 43.8584 24.439 43.165 23.8691C42.4734 23.2991 41.5996 23.015 40.5471 23.015H40.3266Z" fill="url(#paint2_linear_128_142)"/>
<path d="M17.9898 25.8581C18.6999 26.5016 19.0557 27.2236 19.0557 28.0226C19.0557 28.5892 18.872 29.1274 18.5061 29.6388C17.9949 30.3608 17.218 30.9107 16.1755 31.2868C15.2533 31.6194 14.2325 31.7865 13.1132 31.7865H9.13863L6.74121 28.6895H13.464C13.8516 28.6895 14.2175 28.651 14.5616 28.5725C15.0712 28.4621 15.3268 28.29 15.3268 28.056C15.3268 27.8237 15.0712 27.6515 14.5616 27.5395C14.2191 27.4627 13.8533 27.4225 13.4657 27.4225H11.6062L9.1971 24.3254H13.479C13.7898 24.3254 14.0721 24.2803 14.3277 24.1884C14.6936 24.0513 14.8774 23.8524 14.8774 23.5917C14.8774 23.331 14.6936 23.1371 14.3277 23.0117C14.0721 22.9215 13.7898 22.8747 13.479 22.8747H9.13863L6.74121 19.7776H13.1115C14.2442 19.7776 15.265 19.9497 16.1738 20.294C17.2163 20.6835 17.9932 21.2434 18.5044 21.9771C18.8703 22.4986 19.0541 23.0485 19.0541 23.6251C19.0557 24.4491 18.6999 25.1929 17.9898 25.8581Z" fill="url(#paint3_linear_128_142)"/>
<path d="M31.1699 19.796L28.7725 22.8931H26.3885C25.224 22.8931 24.3135 23.2207 23.6586 23.8759H27.9906C29.2553 23.8759 30.2594 24.282 31.0029 25.091C31.6912 25.8347 32.0353 26.7456 32.0353 27.822C32.0353 28.9101 31.6912 29.826 31.0029 30.5698C30.2594 31.3921 29.2553 31.8016 27.9906 31.8016H26.3885C24.2918 31.8016 22.5576 31.2216 21.186 30.0617C19.8144 28.9017 19.1294 27.4443 19.1294 25.6893C19.1294 23.9344 19.8094 22.5137 21.1693 21.4256C22.5292 20.3375 24.2684 19.7943 26.3885 19.7943H31.1699V19.796ZM27.9906 28.7062C28.5119 28.7062 28.7725 28.412 28.7725 27.8237C28.7725 27.5914 28.7174 27.3791 28.6071 27.1902C28.4517 26.9562 28.2462 26.8409 27.9906 26.8409H23.0421C23.5299 28.0844 24.646 28.7062 26.3885 28.7062H27.9906Z" fill="url(#paint4_linear_128_142)"/>
<path d="M46.9308 25.6926C46.9308 27.4476 46.2458 28.905 44.8742 30.065C43.5043 31.2249 41.7751 31.8049 39.6884 31.8049H39.4729C37.3762 31.8049 35.6404 31.2249 34.2705 30.065C32.9005 28.905 32.2139 27.4476 32.2139 25.6926C32.2139 23.9376 32.8938 22.517 34.2537 21.4289C35.6137 20.3408 37.3529 19.7976 39.4729 19.7976H39.6884C41.8085 19.7976 43.5444 20.3425 44.8993 21.4289C46.2525 22.517 46.9308 23.9376 46.9308 25.6926ZM39.483 22.8947C38.4522 22.8947 37.6051 23.1705 36.9419 23.722C36.2769 24.2736 35.9445 24.9773 35.9445 25.8347C35.9445 26.6921 36.2769 27.3857 36.9419 27.9139C37.6068 28.442 38.4538 28.7078 39.483 28.7078H39.6968C40.7276 28.7078 41.5746 28.4437 42.2379 27.9139C42.9028 27.3857 43.2353 26.6921 43.2353 25.8347C43.2353 24.9773 42.8995 24.2736 42.2295 23.722C41.5596 23.1705 40.7142 22.8947 39.6968 22.8947H39.483Z" fill="url(#paint5_linear_128_142)"/>
<path d="M51.7909 18.6176C51.7909 19.2494 51.5436 19.7742 51.0508 20.1921C50.5579 20.6099 49.9348 20.8188 49.183 20.8188H49.1061C48.351 20.8188 47.7261 20.6099 47.2333 20.1921C46.7404 19.7742 46.4932 19.2494 46.4932 18.6176C46.4932 17.9858 46.7388 17.4744 47.2283 17.0816C47.7178 16.6905 48.3443 16.4933 49.1078 16.4933H49.1846C49.9481 16.4933 50.5729 16.6888 51.0608 17.0816C51.5469 17.4744 51.7909 17.9875 51.7909 18.6176ZM49.1094 17.6114C48.7386 17.6114 48.4328 17.7101 48.1939 17.909C47.955 18.1079 47.8347 18.3619 47.8347 18.6694C47.8347 18.9786 47.955 19.2277 48.1939 19.4182C48.4328 19.6088 48.7386 19.704 49.1094 19.704H49.1863C49.5572 19.704 49.8629 19.6088 50.1018 19.4182C50.3407 19.2277 50.461 18.9786 50.461 18.6694C50.461 18.3602 50.3407 18.1062 50.0985 17.909C49.8579 17.7101 49.5522 17.6114 49.1863 17.6114H49.1094Z" fill="url(#paint6_linear_128_142)"/>
<path d="M51.4102 18.5441C51.4102 19.1559 51.1713 19.664 50.6935 20.0668C50.2157 20.4712 49.6142 20.6735 48.8858 20.6735H48.8106C48.0806 20.6735 47.4758 20.4712 46.998 20.0668C46.5202 19.6623 46.2812 19.1542 46.2812 18.5441C46.2812 17.9324 46.5185 17.4377 46.9913 17.0583C47.4641 16.6789 48.0705 16.49 48.809 16.49H48.8841C49.6226 16.49 50.2274 16.6789 50.7002 17.0583C51.1746 17.4377 51.4102 17.9324 51.4102 18.5441ZM48.8157 17.568C48.4565 17.568 48.1608 17.6633 47.9302 17.8555C47.698 18.0477 47.5827 18.2934 47.5827 18.5909C47.5827 18.8901 47.698 19.1308 47.9302 19.3163C48.1624 19.5002 48.4565 19.5921 48.8157 19.5921H48.8908C49.25 19.5921 49.5441 19.5002 49.7763 19.3163C50.0085 19.1325 50.1238 18.8901 50.1238 18.5909C50.1238 18.2918 50.0068 18.0461 49.7729 17.8555C49.539 17.665 49.245 17.568 48.8908 17.568H48.8157Z" fill="url(#paint7_linear_128_142)"/>
<path d="M80.2136 25.8202C80.2136 29.8885 76.9764 32.4187 71.4384 32.4187C65.8012 32.4187 63.2089 30.4342 62.564 25.9504L68.0399 25.1815C68.4244 26.7194 69.3547 27.2652 71.3702 27.2652C73.3857 27.2652 74.4462 26.5892 74.4462 25.2807C74.4462 24.0342 73.5469 23.2962 71.4384 23.2962H68.8461V18.9427H70.6074C72.8834 18.9427 73.8446 18.3039 73.8446 17.0202C73.8446 15.9597 72.9826 15.2279 71.2524 15.2279C69.5531 15.2279 68.5299 15.8047 68.1764 17.2125L62.7624 16.4745C63.4012 12.3752 66.4151 10.0372 71.5066 10.0372C76.4369 10.0372 79.3826 12.3132 79.3826 15.8667C79.3826 18.0124 78.6136 19.6434 76.5299 20.6729C78.7439 21.3365 80.2136 22.9365 80.2136 25.8202Z" fill="#231F20"/>
<path d="M100.84 24.8279C100.84 29.7272 97.0633 32.4187 91.6804 32.4187C85.4664 32.4187 82.3594 28.9892 82.3594 21.4977C82.3594 13.7457 86.1051 10.031 92.0648 10.031C96.6106 10.031 99.4943 11.9845 100.263 16.4682L94.4649 17.2372C94.1114 15.7985 93.2803 15.0605 91.7424 15.0915C89.7889 15.1225 88.5423 16.245 88.6044 20.5365C89.8509 19.0295 91.8726 18.3597 94.2416 18.3597C98.5331 18.3597 100.84 20.8899 100.84 24.8279ZM95.0106 25.0512C95.0106 23.6434 93.8571 22.8434 92.0338 22.8434C90.5268 22.8434 89.0571 23.5504 89.0571 25.1194C89.0571 26.5272 90.3036 27.3272 92.0648 27.3272C93.7951 27.3272 95.0106 26.5272 95.0106 25.0512Z" fill="#231F20"/>
<path d="M102.949 21.3055C102.949 14.2605 106.632 10 112.716 10C119.023 10 122.484 13.938 122.484 21.1752C122.484 28.2202 118.862 32.4497 112.685 32.4497C106.409 32.4497 102.949 28.5117 102.949 21.3055ZM115.984 21.2062C115.984 16.9148 114.862 15.1225 112.716 15.1225C110.601 15.1225 109.448 16.8837 109.448 21.2062C109.448 25.5287 110.57 27.321 112.716 27.321C114.831 27.3272 115.984 25.5349 115.984 21.2062Z" fill="#231F20"/>
<path d="M145.361 21.1442C145.361 27.9039 140.971 31.904 133.833 31.904H125.38V10.5706H134.025C141.101 10.5768 145.361 14.3535 145.361 21.1442ZM138.893 21.3055C138.893 17.5907 137.033 15.8295 133.51 15.7985L131.457 15.7675V26.6264L133.572 26.6574C137.033 26.6512 138.893 24.9892 138.893 21.3055Z" fill="#231F20"/>
<path d="M163.836 26.8745V31.904H148.301V10.5706H163.513V15.569H154.385V18.4528H162.775V23.4512H154.385V26.8807H163.836V26.8745Z" fill="#231F20"/>
<path d="M186 19.9287V31.9101H181.417L181.095 30.5954C179.557 31.8729 177.541 32.4497 175.135 32.4497C169.628 32.4497 165.591 28.6419 165.591 21.4667C165.591 14.2605 169.851 10.031 176.158 10.031C181.603 10.031 184.903 12.7535 185.703 17.5907L179.681 18.3597C179.296 16.4372 177.982 15.507 176.127 15.507C173.69 15.507 172.09 17.5225 172.09 21.2372C172.09 25.0822 173.628 26.9365 176.059 26.9365C178.844 26.9365 179.904 25.6218 180.382 24.5675H176.537V19.9225H186V19.9287Z" fill="#231F20"/>
<path d="M197.783 25.4667H195.383V31.904H189.299V10.5706H199.098C204.481 10.5706 207.52 13.262 207.52 18C207.52 21.0078 206.112 23.1598 203.743 24.3443L208.003 31.904H201.089L197.783 25.4667ZM195.383 20.5365H198.36C200.183 20.5365 201.275 19.7675 201.275 18.1675C201.275 16.5303 200.22 15.8295 198.36 15.8295H195.383V20.5365Z" fill="#231F20"/>
<path d="M226.192 26.8745V31.904H210.657V10.5706H225.87V15.569H216.741V18.4528H225.132V23.4512H216.741V26.8807H226.192V26.8745Z" fill="#231F20"/>
<path d="M244.865 26.8745V31.904H229.331V10.5706H244.543V15.569H235.414V18.4528H243.805V23.4512H235.414V26.8807H244.865V26.8745Z" fill="#231F20"/>
<path d="M246.72 25.8202L252.611 24.9892C252.965 26.7505 254.118 27.4264 256.134 27.4264C258.056 27.4264 259.017 27.0109 259.017 25.8264C259.017 24.6419 258.217 24.3195 254.211 23.6497C250.273 23.0109 247.067 21.6652 247.067 17.0822C247.067 12.5985 250.49 10.0372 255.873 10.0372C260.965 10.0372 263.817 12.0589 264.518 16.3442L258.627 17.1752C258.335 15.5752 257.188 15.0915 255.582 15.0915C253.951 15.0915 253.213 15.6682 253.213 16.5303C253.213 17.5225 253.883 17.907 257.951 18.645C262.819 19.507 265.095 21.3365 265.095 25.4047C265.095 30.1427 261.703 32.4497 255.774 32.4497C250.273 32.4497 247.296 30.4652 246.72 25.8202Z" fill="#231F20"/>
<path d="M62.564 43.2465L65.0074 42.8992C65.1562 43.631 65.6337 43.9101 66.4647 43.9101C67.2585 43.9101 67.6617 43.7364 67.6617 43.2465C67.6617 42.7566 67.333 42.6201 65.6709 42.3473C64.0399 42.0806 62.7128 41.5225 62.7128 39.6248C62.7128 37.7705 64.133 36.7039 66.3593 36.7039C68.4679 36.7039 69.6524 37.541 69.9438 39.3147L67.5004 39.662C67.3826 38.9984 66.9051 38.8 66.2415 38.8C65.5655 38.8 65.2616 39.0356 65.2616 39.3953C65.2616 39.8046 65.5407 39.9659 67.2275 40.2698C69.2431 40.6295 70.1857 41.386 70.1857 43.0667C70.1857 45.0326 68.7779 45.9876 66.3221 45.9876C64.0399 45.9938 62.8058 45.169 62.564 43.2465Z" fill="#39B44A"/>
<path d="M78.2913 42.1178V45.7644H75.7858V42.0868L72.7471 36.9271H75.482L77.1254 40.0713L78.7068 36.9271H81.2928L78.2913 42.1178Z" fill="#39B44A"/>
<path d="M83.9346 43.2465L86.378 42.8992C86.5268 43.631 87.0044 43.9101 87.8354 43.9101C88.6292 43.9101 89.0323 43.7364 89.0323 43.2465C89.0323 42.7566 88.7036 42.6201 87.0415 42.3473C85.4105 42.0806 84.0834 41.5225 84.0834 39.6248C84.0834 37.7705 85.5036 36.7039 87.7299 36.7039C89.8385 36.7039 91.023 37.541 91.3144 39.3147L88.871 39.662C88.7532 38.9984 88.2757 38.8 87.6121 38.8C86.9361 38.8 86.6323 39.0356 86.6323 39.3953C86.6323 39.8046 86.9113 39.9659 88.5981 40.2698C90.6137 40.6295 91.5563 41.386 91.5563 43.0667C91.5563 45.0326 90.1485 45.9876 87.6927 45.9876C85.4043 45.9938 84.1702 45.169 83.9346 43.2465Z" fill="#39B44A"/>
<path d="M101.925 39.3209H99.4944V45.7706H97.0013V39.3209H94.5083V36.9333H101.925V39.3209Z" fill="#39B44A"/>
<path d="M112.015 43.6869V45.7706H105.578V36.9333H111.879V39.0047H108.096V40.2016H111.575V42.2729H108.096V43.693H112.015V43.6869Z" fill="#39B44A"/>
<path d="M125.882 45.7705H123.6V41.6464L123.681 39.8046L121.994 45.6589H119.792L118.106 39.848L118.186 41.6526V45.7767H115.972V36.9395H119.476L120.909 42.2728L120.946 42.5891L121.002 42.2728L122.434 36.9395H125.882V45.7705Z" fill="#39B44A"/>
<path d="M129.702 43.2465L132.146 42.8992C132.294 43.631 132.772 43.9101 133.603 43.9101C134.397 43.9101 134.8 43.7364 134.8 43.2465C134.8 42.7566 134.471 42.6201 132.809 42.3473C131.178 42.0806 129.851 41.5225 129.851 39.6248C129.851 37.7705 131.271 36.7039 133.498 36.7039C135.606 36.7039 136.791 37.541 137.082 39.3147L134.639 39.662C134.521 38.9984 134.043 38.8 133.38 38.8C132.704 38.8 132.4 39.0356 132.4 39.3953C132.4 39.8046 132.679 39.9659 134.366 40.2698C136.381 40.6295 137.324 41.386 137.324 43.0667C137.324 45.0326 135.916 45.9876 133.46 45.9876C131.178 45.9938 129.944 45.169 129.702 43.2465Z" fill="#39B44A"/>
<path d="M145.721 41.4046C145.721 38.5147 147.538 36.7101 150.006 36.7101C152.17 36.7101 153.64 37.6899 153.907 39.9349L151.519 40.2512C151.346 39.3333 150.818 38.9798 150.043 38.9798C149.113 38.9798 148.412 39.786 148.412 41.3426C148.412 42.9737 149.076 43.7179 150.043 43.7179C150.825 43.7179 151.37 43.3706 151.581 42.4031L153.956 42.7194C153.69 44.9458 152.071 46 149.907 46C147.501 45.9938 145.721 44.4124 145.721 41.4046Z" fill="#39B44A"/>
<path d="M157.188 41.3922C157.188 38.4589 159.073 36.6976 161.727 36.6976C164.462 36.6976 166.267 38.3721 166.267 41.3178C166.267 44.2512 164.381 46 161.727 46C158.992 45.9938 157.188 44.338 157.188 41.3922ZM163.6 41.3488C163.6 39.8356 162.881 38.9736 161.727 38.9736C160.586 38.9736 159.885 39.8356 159.885 41.3488C159.885 42.862 160.561 43.7116 161.727 43.7116C162.868 43.7116 163.6 42.8744 163.6 41.3488Z" fill="#39B44A"/>
<path d="M173.672 43.1039H172.679V45.7706H170.155V36.9333H174.217C176.45 36.9333 177.709 38.0496 177.709 40.0093C177.709 41.2558 177.126 42.1489 176.14 42.6388L177.907 45.7706H175.042L173.672 43.1039ZM172.673 41.0574H173.907C174.664 41.0574 175.117 40.7411 175.117 40.0776C175.117 39.4016 174.676 39.1101 173.907 39.1101H172.673V41.0574Z" fill="#39B44A"/>
<path d="M189.25 40.183C189.25 42.2915 187.885 43.4884 185.56 43.4884H184.115V45.7706H181.591V36.9333H185.64C188.016 36.9333 189.25 38.0744 189.25 40.183ZM185.349 39.1039H184.115V41.3054H185.349C186.186 41.3054 186.676 40.9458 186.688 40.1892C186.701 39.4512 186.168 39.1039 185.349 39.1039Z" fill="#39B44A"/>
<path d="M192.475 41.3922C192.475 38.4589 194.36 36.6976 197.014 36.6976C199.749 36.6976 201.554 38.3721 201.554 41.3178C201.554 44.2512 199.668 46 197.014 46C194.279 45.9938 192.475 44.338 192.475 41.3922ZM198.881 41.3488C198.881 39.8356 198.161 38.9736 197.008 38.9736C195.867 38.9736 195.166 39.8356 195.166 41.3488C195.166 42.862 195.842 43.7116 197.008 43.7116C198.155 43.7116 198.881 42.8744 198.881 41.3488Z" fill="#39B44A"/>
<path d="M208.958 43.1039H207.966V45.7706H205.442V36.9333H209.504C211.736 36.9333 212.995 38.0496 212.995 40.0093C212.995 41.2558 212.412 42.1489 211.426 42.6388L213.194 45.7706H210.329L208.958 43.1039ZM207.96 41.0574H209.194C209.95 41.0574 210.403 40.7411 210.403 40.0776C210.403 39.4016 209.963 39.1101 209.194 39.1101H207.96V41.0574Z" fill="#39B44A"/>
<path d="M221.963 44.3194H218.936L218.471 45.7644H215.991L218.924 36.9271H222.056L224.989 45.7644H222.416L221.963 44.3194ZM221.336 42.3597L220.58 39.9845L220.45 39.4263L220.301 39.9969L219.557 42.3597H221.336Z" fill="#39B44A"/>
<path d="M234.267 39.3209H231.836V45.7706H229.343V39.3209H226.85V36.9333H234.267V39.3209Z" fill="#39B44A"/>
<path d="M237.914 36.9333H240.438V45.7706H237.914V36.9333Z" fill="#39B44A"/>
<path d="M244.313 41.3922C244.313 38.4589 246.199 36.6976 248.853 36.6976C251.588 36.6976 253.393 38.3721 253.393 41.3178C253.393 44.2512 251.507 46 248.853 46C246.112 45.9938 244.313 44.338 244.313 41.3922ZM250.72 41.3488C250.72 39.8356 250 38.9736 248.847 38.9736C247.706 38.9736 246.999 39.8356 246.999 41.3488C246.999 42.862 247.675 43.7116 248.847 43.7116C249.988 43.7116 250.72 42.8744 250.72 41.3488Z" fill="#39B44A"/>
<path d="M265.107 36.9333V45.7706H262.589L259.656 40.8775L259.724 42.6016V45.7706H257.281V36.9333H259.935L262.72 41.5783L262.664 39.9845V36.9333H265.107Z" fill="#39B44A"/>
<defs>
<linearGradient id="paint0_linear_128_142" x1="6.23263" y1="25.9933" x2="19.2146" y2="25.9933" gradientUnits="userSpaceOnUse">
<stop stop-color="white"/>
<stop offset="0.5133" stop-color="#A6A8AB"/>
<stop offset="1" stop-color="white"/>
</linearGradient>
<linearGradient id="paint1_linear_128_142" x1="19.2923" y1="26.019" x2="32.6308" y2="26.019" gradientUnits="userSpaceOnUse">
<stop stop-color="white"/>
<stop offset="0.5133" stop-color="#A6A8AB"/>
<stop offset="1" stop-color="white"/>
</linearGradient>
<linearGradient id="paint2_linear_128_142" x1="32.8156" y1="26.019" x2="48.025" y2="26.019" gradientUnits="userSpaceOnUse">
<stop stop-color="white"/>
<stop offset="0.5133" stop-color="#A6A8AB"/>
<stop offset="1" stop-color="white"/>
</linearGradient>
<linearGradient id="paint3_linear_128_142" x1="12.8985" y1="20.7155" x2="12.8985" y2="30.4889" gradientUnits="userSpaceOnUse">
<stop stop-color="white"/>
<stop offset="0.5133" stop-color="#E5E6E7"/>
<stop offset="1" stop-color="white"/>
</linearGradient>
<linearGradient id="paint4_linear_128_142" x1="25.5835" y1="20.7155" x2="25.5835" y2="30.4889" gradientUnits="userSpaceOnUse">
<stop stop-color="white"/>
<stop offset="0.5133" stop-color="#E5E6E7"/>
<stop offset="1" stop-color="white"/>
</linearGradient>
<linearGradient id="paint5_linear_128_142" x1="39.5726" y1="20.7155" x2="39.5726" y2="30.4889" gradientUnits="userSpaceOnUse">
<stop stop-color="white"/>
<stop offset="0.5133" stop-color="#E5E6E7"/>
<stop offset="1" stop-color="white"/>
</linearGradient>
<linearGradient id="paint6_linear_128_142" x1="46.492" y1="18.6574" x2="51.7914" y2="18.6574" gradientUnits="userSpaceOnUse">
<stop stop-color="white"/>
<stop offset="0.5133" stop-color="#A6A8AB"/>
<stop offset="1" stop-color="white"/>
</linearGradient>
<linearGradient id="paint7_linear_128_142" x1="48.8466" y1="16.8095" x2="48.8466" y2="20.2149" gradientUnits="userSpaceOnUse">
<stop stop-color="white"/>
<stop offset="0.5133" stop-color="#E5E6E7"/>
<stop offset="1" stop-color="white"/>
</linearGradient>
</defs>
</svg>
