<svg width="147" height="40" viewBox="0 0 147 40" fill="none" xmlns="http://www.w3.org/2000/svg">
<path d="M34.0498 31.0449C34.0498 31.0449 33.7574 29.4452 34.408 29.087C35.0598 28.7288 35.6627 28.8124 35.6627 28.8124L35.9457 29.6314C37.8726 26.6408 38.9912 23.0915 38.9912 19.2831C38.9912 8.63393 30.2629 0 19.4956 0C8.72825 0 0 8.63274 0 19.2831C0 24.9766 2.49515 30.0922 6.46112 33.6224L6.71303 33.552V32.1815H10.1036L9.46367 28.4256C9.46367 28.4256 9.65706 27.8705 11.1291 27.8705C12.6011 27.8705 13.0739 28.4256 13.0739 28.4256L13.6147 32.1815H15.0986V28.933C15.0986 28.933 17.4756 28.2167 18.876 28.933C18.876 30.3895 18.876 32.2746 18.876 32.2746H20.3122V29.0046C20.3122 29.0046 20.7348 28.6154 22.2307 28.6154C23.7266 28.6154 24.1254 29.0285 24.1254 29.0285V32.2197H25.6583L26.2015 28.2418C26.2015 28.2418 28.5736 27.301 29.6386 28.428C29.1455 31.7982 29.1097 32.1827 29.1097 32.1827H32.5492V33.6057C32.9455 33.2523 33.3264 32.8823 33.6917 32.4978L34.0498 31.0449Z" fill="#39B44A"/>
<path d="M31.1953 35.3822L30.8491 36.1821H35.6305C35.6305 36.1821 36.9784 31.8973 37.2768 29.1085L35.2126 28.9031C35.2126 28.9031 34.5142 29.5586 34.5142 30.8742C34.5142 31.1917 34.5453 31.3852 34.5453 31.3852L33.4469 35.2461H31.4759L31.1953 35.3822Z" fill="#E5E6E7"/>
<path d="M7.83154 32.3403V33.7072H9.2391L10.6574 38.9506H29.2672L30.7941 33.6893H32.327V32.3833L7.83154 32.3403Z" fill="#58595B"/>
<path d="M20.8555 32.3403V29.0047C20.8555 29.0047 22.8671 28.6214 23.8962 29.2482C23.8962 31.5404 23.8962 32.4203 23.8962 32.4203L20.8555 32.3403Z" fill="#808184"/>
<path d="M15.8315 32.2614V29.0428C15.8315 29.0428 17.9112 28.3599 18.8723 29.2577C18.8723 31.4377 18.8723 32.3832 18.8723 32.3832L15.8315 32.2614Z" fill="#E5E6E7"/>
<path d="M4.04246 36.1343C4.04246 36.1343 2.6946 31.6717 2.48926 28.9951C3.70579 28.8637 5.26496 28.4089 5.26496 31.3159C5.26496 32.2017 6.25108 35.2329 6.25108 35.2329H8.70923L8.83338 36.2561L4.04246 36.1343Z" fill="#808184"/>
<path d="M33.4778 36.1821H32.8916V40H33.4778V36.1821Z" fill="#231F20"/>
<path d="M35.9111 36.4746H30.1006V35.8884H35.4956C35.7272 35.1935 36.5163 32.6817 37.0202 29.2482C36.4638 29.1849 35.215 29.0977 34.4319 29.4511C34.1024 29.6135 34.0833 30.6832 34.0761 31.0855C34.0737 31.2491 34.0713 31.378 34.0594 31.4675C34.0116 31.8281 33.1306 34.7494 32.9551 35.332L32.8918 35.5398H30.4384V34.9536H32.4572C32.8608 33.6141 33.4481 31.6204 33.4792 31.3911C33.4863 31.335 33.4887 31.2097 33.4911 31.076C33.5031 30.3919 33.5234 29.2458 34.1836 28.9211C35.3822 28.3814 37.3198 28.6942 37.4022 28.7074L37.6839 28.7539L37.6445 29.0369C37.0488 33.3025 35.9934 36.2525 35.9827 36.2811L35.9111 36.4746Z" fill="#231F20"/>
<path d="M24.246 32.3832H23.6598V29.3711C22.1758 28.8088 20.8662 29.1992 20.4197 29.3676V32.382H19.8335V28.9915L19.9959 28.9103C20.0735 28.8721 21.9108 27.9815 24.0681 28.9031L24.246 28.9796V32.3832Z" fill="#231F20"/>
<path d="M6.14136 36.1821H5.55518V40H6.14136V36.1821Z" fill="#231F20"/>
<path d="M8.93225 36.4746H3.12177L3.05134 36.2812C3.04059 36.2525 1.98642 33.3025 1.38949 29.0369L1.3501 28.7539L1.63184 28.7074C1.71422 28.693 3.65065 28.3814 4.84092 28.9163C5.51067 29.2458 5.52977 30.3919 5.54171 31.076C5.5441 31.2097 5.54649 31.335 5.55365 31.3911C5.5835 31.6204 6.17207 33.6141 6.57559 34.9536H8.59439V35.5398H6.14103L6.07775 35.332C5.90106 34.7494 5.01999 31.8293 4.97343 31.4675C4.9615 31.378 4.95911 31.2503 4.95673 31.0867C4.94956 30.6844 4.93165 29.6135 4.5926 29.4476C3.81659 29.0978 2.57021 29.1861 2.01388 29.2494C2.51768 32.6841 3.30563 35.1948 3.53724 35.8908H8.93225V36.4746Z" fill="#231F20"/>
<path d="M19.1996 32.3832H18.6134V29.3687C18.1669 29.1992 16.8573 28.81 15.3733 29.3723V32.3844H14.7871V28.9819L14.965 28.9055C17.1223 27.9839 18.9608 28.8745 19.0372 28.9127L19.1996 28.9939V32.3832Z" fill="#231F20"/>
<path d="M32.5981 33.9985H6.36914V32.0955H32.5981V33.9985ZM6.95533 33.4123H32.0119V32.6829H6.95533V33.4123Z" fill="#231F20"/>
<path d="M29.4773 39.3935H9.49339L7.83154 33.7884L8.39265 33.6213L9.93034 38.8074H29.0391L30.5673 33.6225L31.1296 33.7884L29.4773 39.3935Z" fill="#231F20"/>
<path d="M26.7782 28.2561C26.7782 28.2561 26.2207 33.9257 25.2441 36.3122C27.3119 36.3122 28.1631 36.3122 28.1631 36.3122L29.5014 28.4865C29.5014 28.4877 28.2288 27.6771 26.7782 28.2561Z" fill="#BBBDBF"/>
<path d="M11.6354 36.2561C11.6354 36.2561 10.2839 31.9451 10.2075 28.2465C10.8809 27.5732 13.0143 28.6023 13.0143 28.6023L14.54 36.2549H11.6354V36.2561Z" fill="#BBBDBF"/>
<path d="M25.4686 39.9988H24.8824V36.0197H27.9041C28.1106 35.4884 28.7517 33.5293 29.2209 28.7252C28.8615 28.4972 27.7525 27.948 26.2828 28.7049C26.1611 29.6696 25.4949 34.7399 24.6902 36.3969L24.6102 36.5617H21.1206V35.9755H24.2378C25.0353 34.0844 25.7134 28.5402 25.7205 28.4829L25.7384 28.3349L25.8686 28.262C28.0569 27.0371 29.6483 28.3014 29.7151 28.3563L29.8369 28.4554L29.8226 28.6106C29.2436 34.679 28.3959 36.3766 28.3601 36.4459L28.2777 36.6047H25.4698V39.9988H25.4686Z" fill="#231F20"/>
<path d="M24.4909 35.5374H21.1206V36.1235H24.4909V35.5374Z" fill="#231F20"/>
<path d="M14.1493 39.9988H13.5631V36.6059H10.7552L10.6728 36.4471C10.637 36.3779 9.78817 34.6802 9.20915 28.6119L9.19482 28.4567L9.31659 28.3576C9.38345 28.3026 10.9749 27.0384 13.1632 28.2633L13.2933 28.3361L13.3112 28.4841C13.3184 28.5414 13.9965 34.0857 14.794 35.9767H17.9111V36.5629H14.4215L14.3415 36.3982C13.5369 34.7411 12.8695 29.6708 12.7489 28.7062C11.2888 27.9564 10.1714 28.502 9.81204 28.7277C10.28 33.5281 10.9223 35.4884 11.1289 36.0209H14.1505V39.9988H14.1493Z" fill="#231F20"/>
<path d="M17.9113 35.5374H14.541V36.1235H17.9113V35.5374Z" fill="#231F20"/>
<path d="M25.8483 36.0197H21.1206V36.6059H25.8483V36.0197Z" fill="#231F20"/>
<path d="M17.9114 36.0197H13.1372V36.6059H17.9114V36.0197Z" fill="#231F20"/>
<path d="M12.9436 18.6277C13.4677 19.1029 13.7303 19.6353 13.7303 20.2263C13.7303 20.6441 13.5954 21.0417 13.3244 21.4189C12.9472 21.9514 12.3741 22.3573 11.6029 22.6367C10.9224 22.8826 10.1679 23.0056 9.34054 23.0056H6.40605L4.4541 20.4806H9.50648C9.79301 20.4806 10.1583 20.6895 10.4114 20.6322C10.7887 20.5498 10.9761 20.4233 10.9761 20.2513C10.9761 20.0794 10.7875 19.9529 10.4114 19.8705C10.1583 19.8132 9.88732 19.7845 9.60199 19.7845H8.22906L6.35113 17.3777H9.51365C9.74287 17.3777 10.0509 17.4637 10.2395 17.3968C10.5093 17.2966 10.6454 17.1497 10.6454 16.9563C10.6454 16.7629 10.5105 16.6208 10.2395 16.5289C10.0509 16.4621 9.84196 16.4286 9.61274 16.4286H6.40724L4.56513 14.1293H9.33934C10.175 14.1293 10.9319 14.269 11.6041 14.522C12.3741 14.8086 12.9484 15.2228 13.3256 15.7637C13.5966 16.1493 13.7315 16.5552 13.7315 16.9814C13.7303 17.5867 13.4677 18.1358 12.9436 18.6277Z" fill="url(#paint0_linear_137_4906)"/>
<path d="M22.6784 14.1531L20.9079 16.4406H19.147C18.2863 16.4406 17.6141 16.6829 17.1306 17.1664H20.3301C21.2649 17.1664 22.0063 17.4661 22.5555 18.0642C23.064 18.6134 23.3183 19.2855 23.3183 20.0806C23.3183 20.8841 23.064 21.5598 22.5555 22.109C22.0063 22.7154 21.2649 23.0187 20.3301 23.0187H19.147C17.5974 23.0187 16.3176 22.5901 15.3052 21.7341C14.2928 20.8781 13.7866 19.8024 13.7866 18.5071C13.7866 17.2118 14.288 16.1624 15.2933 15.3589C16.2973 14.5555 17.5819 14.1543 19.1482 14.1543H22.6784V14.1531ZM20.3301 20.7301C20.7157 20.7301 20.9079 20.5128 20.9079 20.0782C20.9079 19.9063 20.8674 19.7499 20.785 19.6114C20.6704 19.4395 20.5188 19.3536 20.3301 19.3536H16.6757C17.0363 20.2716 17.86 20.7301 19.147 20.7301H20.3301Z" fill="url(#paint1_linear_137_4906)"/>
<path d="M34.3183 18.5048C34.3183 19.8001 33.8121 20.8757 32.7997 21.7317C31.7873 22.5889 30.5111 23.0163 28.9699 23.0163H28.8111C27.2615 23.0163 25.9805 22.5877 24.9693 21.7317C23.9569 20.8757 23.4507 19.8001 23.4507 18.5048C23.4507 17.2094 23.9521 16.16 24.9573 15.3566C25.9614 14.5531 27.2459 14.152 28.8123 14.152H28.9711C30.5362 14.152 31.8196 14.5531 32.82 15.3566C33.8181 16.1612 34.3183 17.2106 34.3183 18.5048ZM28.817 16.4394C28.0566 16.4394 27.4298 16.6424 26.9391 17.0495C26.4484 17.4566 26.2025 17.9759 26.2025 18.6098C26.2025 19.2426 26.4473 19.7547 26.9391 20.1451C27.4298 20.5355 28.0554 20.7301 28.817 20.7301H28.9746C29.7351 20.7301 30.3607 20.5355 30.8514 20.1451C31.342 19.7547 31.588 19.2426 31.588 18.6098C31.588 17.9771 31.3409 17.4566 30.8454 17.0495C30.3511 16.6424 29.7268 16.4394 28.9746 16.4394H28.817Z" fill="url(#paint2_linear_137_4906)"/>
<path d="M12.8551 18.4701C13.3625 18.9298 13.6168 19.4455 13.6168 20.0162C13.6168 20.4209 13.4855 20.8053 13.224 21.1706C12.8587 21.6864 12.3035 22.0791 11.5586 22.3478C10.8996 22.5853 10.1701 22.7047 9.37025 22.7047H6.53008L4.81689 20.4925H9.62096C9.89793 20.4925 10.1594 20.4651 10.4053 20.4089C10.7694 20.3301 10.9521 20.2072 10.9521 20.04C10.9521 19.8741 10.7694 19.7511 10.4053 19.6711C10.1606 19.6162 9.89912 19.5876 9.62215 19.5876H8.29339L6.57186 17.3754H9.6317C9.85376 17.3754 10.0555 17.3431 10.2382 17.2775C10.4996 17.1796 10.631 17.0375 10.631 16.8513C10.631 16.665 10.4996 16.5265 10.2382 16.437C10.0555 16.3725 9.85376 16.3391 9.6317 16.3391H6.53008L4.81689 14.1269H9.36905C10.1785 14.1269 10.9079 14.2499 11.5574 14.4958C12.3023 14.774 12.8575 15.1739 13.2228 15.698C13.4843 16.0705 13.6156 16.4633 13.6156 16.8751C13.6168 17.4637 13.3625 17.995 12.8551 18.4701Z" fill="url(#paint3_linear_137_4906)"/>
<path d="M22.2735 14.14L20.5603 16.3523H18.8567C18.0246 16.3523 17.374 16.5863 16.906 17.0542H20.0016C20.9054 17.0542 21.6229 17.3443 22.1541 17.9222C22.646 18.4534 22.8919 19.1041 22.8919 19.8729C22.8919 20.6501 22.646 21.3044 22.1541 21.8356C21.6229 22.423 20.9054 22.7155 20.0016 22.7155H18.8567C17.3584 22.7155 16.1192 22.3012 15.1391 21.4727C14.1589 20.6442 13.6694 19.6031 13.6694 18.3496C13.6694 17.096 14.1553 16.0813 15.1271 15.3041C16.0989 14.5269 17.3417 14.1389 18.8567 14.1389H22.2735V14.14ZM20.0016 20.5045C20.3741 20.5045 20.5603 20.2944 20.5603 19.8741C20.5603 19.7082 20.5209 19.5566 20.4422 19.4216C20.3311 19.2545 20.1843 19.1721 20.0016 19.1721H16.4654C16.814 20.0604 17.6115 20.5045 18.8567 20.5045H20.0016Z" fill="url(#paint4_linear_137_4906)"/>
<path d="M33.5362 18.3519C33.5362 19.6055 33.0467 20.6465 32.0665 21.4751C31.0876 22.3036 29.8519 22.7179 28.3608 22.7179H28.2068C26.7085 22.7179 25.4681 22.3036 24.4892 21.4751C23.5102 20.6465 23.0195 19.6055 23.0195 18.3519C23.0195 17.0984 23.5054 16.0836 24.4772 15.3064C25.449 14.5292 26.6918 14.1412 28.2068 14.1412H28.3608C29.8758 14.1412 31.1162 14.5304 32.0844 15.3064C33.0515 16.0836 33.5362 17.0984 33.5362 18.3519ZM28.214 16.3534C27.4774 16.3534 26.8721 16.5504 26.3981 16.9444C25.923 17.3384 25.6854 17.841 25.6854 18.4534C25.6854 19.0659 25.923 19.5613 26.3981 19.9386C26.8733 20.3158 27.4786 20.5057 28.214 20.5057H28.3668C29.1034 20.5057 29.7087 20.317 30.1826 19.9386C30.6578 19.5613 30.8954 19.0659 30.8954 18.4534C30.8954 17.841 30.6554 17.3384 30.1767 16.9444C29.6979 16.5504 29.0938 16.3534 28.3668 16.3534H28.214Z" fill="url(#paint5_linear_137_4906)"/>
<path d="M37.0093 13.2983C37.0093 13.7496 36.8327 14.1245 36.4805 14.4229C36.1283 14.7214 35.683 14.8706 35.1457 14.8706H35.0908C34.5512 14.8706 34.1047 14.7214 33.7525 14.4229C33.4003 14.1245 33.2236 13.7496 33.2236 13.2983C33.2236 12.8471 33.3991 12.4817 33.7489 12.2012C34.0987 11.9218 34.5464 11.7809 35.092 11.7809H35.1469C35.6925 11.7809 36.139 11.9206 36.4876 12.2012C36.835 12.4817 37.0093 12.8482 37.0093 13.2983ZM35.0932 12.5796C34.8282 12.5796 34.6097 12.6501 34.439 12.7921C34.2683 12.9342 34.1823 13.1157 34.1823 13.3353C34.1823 13.5562 34.2683 13.7341 34.439 13.8702C34.6097 14.0063 34.8282 14.0743 35.0932 14.0743H35.1481C35.4132 14.0743 35.6316 14.0063 35.8024 13.8702C35.9731 13.7341 36.059 13.5562 36.059 13.3353C36.059 13.1145 35.9731 12.933 35.8 12.7921C35.6281 12.6501 35.4096 12.5796 35.1481 12.5796H35.0932Z" fill="url(#paint6_linear_137_4906)"/>
<path d="M36.7369 13.2458C36.7369 13.6828 36.5662 14.0457 36.2247 14.3334C35.8833 14.6223 35.4535 14.7668 34.933 14.7668H34.8793C34.3576 14.7668 33.9254 14.6223 33.5839 14.3334C33.2425 14.0445 33.0718 13.6816 33.0718 13.2458C33.0718 12.8089 33.2413 12.4555 33.5792 12.1845C33.917 11.9135 34.3504 11.7786 34.8781 11.7786H34.9318C35.4595 11.7786 35.8916 11.9135 36.2295 12.1845C36.5686 12.4555 36.7369 12.8089 36.7369 13.2458ZM34.8828 12.5486C34.6262 12.5486 34.4149 12.6166 34.2501 12.7539C34.0842 12.8912 34.0018 13.0667 34.0018 13.2792C34.0018 13.4929 34.0842 13.6649 34.2501 13.7974C34.4161 13.9287 34.6262 13.9944 34.8828 13.9944H34.9366C35.1933 13.9944 35.4034 13.9287 35.5693 13.7974C35.7353 13.666 35.8176 13.4929 35.8176 13.2792C35.8176 13.0655 35.7341 12.89 35.5669 12.7539C35.3998 12.6178 35.1897 12.5486 34.9366 12.5486H34.8828Z" fill="url(#paint7_linear_137_4906)"/>
<path d="M55.7052 19.3885C55.7052 21.397 54.1069 22.6463 51.3727 22.6463C48.5895 22.6463 47.3096 21.6665 46.9912 19.4528L49.6948 19.0731C49.8847 19.8324 50.3439 20.1019 51.339 20.1019C52.3341 20.1019 52.8577 19.7681 52.8577 19.1221C52.8577 18.5066 52.4137 18.1423 51.3727 18.1423H50.0929V15.9929H50.9624C52.0861 15.9929 52.5607 15.6775 52.5607 15.0437C52.5607 14.5201 52.1351 14.1588 51.2809 14.1588C50.4419 14.1588 49.9367 14.4436 49.7622 15.1386L47.0892 14.7743C47.4046 12.7504 48.8926 11.5961 51.4064 11.5961C53.8406 11.5961 55.2949 12.7198 55.2949 14.4742C55.2949 15.5336 54.9153 16.3389 53.8865 16.8471C54.9796 17.1747 55.7052 17.9647 55.7052 19.3885Z" fill="white"/>
<path d="M65.8889 18.8986C65.8889 21.3174 64.0243 22.6463 61.3666 22.6463C58.2986 22.6463 56.7646 20.9531 56.7646 17.2544C56.7646 13.4271 58.614 11.593 61.5564 11.593C63.8008 11.593 65.2245 12.5575 65.6042 14.7712L62.7414 15.1509C62.5669 14.4405 62.1566 14.0762 61.3972 14.0915C60.4327 14.1068 59.8173 14.661 59.8479 16.7798C60.4634 16.0358 61.4615 15.7051 62.6312 15.7051C64.75 15.7051 65.8889 16.9543 65.8889 18.8986ZM63.0108 19.0088C63.0108 18.3138 62.4413 17.9188 61.5411 17.9188C60.7971 17.9188 60.0714 18.2678 60.0714 19.0425C60.0714 19.7375 60.6869 20.1325 61.5564 20.1325C62.4107 20.1325 63.0108 19.7375 63.0108 19.0088Z" fill="white"/>
<path d="M66.9297 17.1594C66.9297 13.6812 68.7484 11.5777 71.7521 11.5777C74.866 11.5777 76.5745 13.522 76.5745 17.0951C76.5745 20.5734 74.7864 22.6616 71.7368 22.6616C68.6382 22.6616 66.9297 20.7173 66.9297 17.1594ZM73.3657 17.1105C73.3657 14.9917 72.8115 14.1068 71.7521 14.1068C70.708 14.1068 70.1385 14.9764 70.1385 17.1105C70.1385 19.2446 70.6927 20.1294 71.7521 20.1294C72.7962 20.1325 73.3657 19.2476 73.3657 17.1105Z" fill="white"/>
<path d="M87.8702 17.0799C87.8702 20.4173 85.7024 22.3922 82.1782 22.3922H78.0049V11.8594H82.2731C85.7667 11.8625 87.8702 13.7272 87.8702 17.0799ZM84.6767 17.1595C84.6767 15.3254 83.7581 14.4559 82.019 14.4406L81.0055 14.4253V19.7866L82.0496 19.8019C83.7581 19.7988 84.6767 18.9782 84.6767 17.1595Z" fill="white"/>
<path d="M96.9912 19.909V22.3922H89.3213V11.8594H96.832V14.3273H92.325V15.751H96.4676V18.2189H92.325V19.9121H96.9912V19.909Z" fill="white"/>
<path d="M107.934 16.4797V22.3952H105.672L105.513 21.7461C104.753 22.3768 103.758 22.6616 102.57 22.6616C99.8512 22.6616 97.8579 20.7816 97.8579 17.2391C97.8579 13.6812 99.9614 11.593 103.075 11.593C105.764 11.593 107.392 12.9372 107.787 15.3254L104.814 15.7051C104.625 14.7559 103.975 14.2966 103.06 14.2966C101.857 14.2966 101.067 15.2917 101.067 17.1258C101.067 19.0241 101.826 19.9396 103.026 19.9396C104.401 19.9396 104.925 19.2905 105.16 18.77H103.262V16.4767H107.934V16.4797Z" fill="white"/>
<path d="M113.752 19.214H112.567V22.3922H109.563V11.8594H114.401C117.058 11.8594 118.559 13.1883 118.559 15.5275C118.559 17.0125 117.864 18.075 116.694 18.6598L118.798 22.3922H115.384L113.752 19.214ZM112.567 16.7798H114.036C114.937 16.7798 115.475 16.4002 115.475 15.6102C115.475 14.8019 114.955 14.4559 114.036 14.4559H112.567V16.7798Z" fill="white"/>
<path d="M127.778 19.909V22.3922H120.108V11.8594H127.619V14.3273H123.112V15.751H127.254V18.2189H123.112V19.9121H127.778V19.909Z" fill="white"/>
<path d="M136.997 19.909V22.3922H129.327V11.8594H136.838V14.3273H132.331V15.751H136.474V18.2189H132.331V19.9121H136.997V19.909Z" fill="white"/>
<path d="M137.913 19.3885L140.822 18.9782C140.996 19.8477 141.566 20.1815 142.561 20.1815C143.51 20.1815 143.985 19.9763 143.985 19.3915C143.985 18.8067 143.59 18.6475 141.612 18.3168C139.668 18.0015 138.085 17.337 138.085 15.0743C138.085 12.8606 139.775 11.5961 142.432 11.5961C144.946 11.5961 146.355 12.5942 146.701 14.71L143.792 15.1203C143.648 14.3303 143.081 14.0915 142.288 14.0915C141.483 14.0915 141.119 14.3762 141.119 14.8018C141.119 15.2917 141.45 15.4816 143.458 15.8459C145.862 16.2715 146.985 17.1747 146.985 19.1833C146.985 21.5226 145.311 22.6616 142.383 22.6616C139.668 22.6616 138.198 21.6818 137.913 19.3885Z" fill="white"/>
<path d="M46.9912 27.9923L48.1976 27.8208C48.2711 28.1821 48.5068 28.3199 48.9171 28.3199C49.309 28.3199 49.508 28.2342 49.508 27.9923C49.508 27.7504 49.3458 27.683 48.5252 27.5483C47.7199 27.4166 47.0647 27.1411 47.0647 26.2041C47.0647 25.2886 47.7659 24.762 48.8651 24.762C49.9061 24.762 50.4909 25.1754 50.6348 26.051L49.4284 26.2225C49.3703 25.8949 49.1345 25.7969 48.8069 25.7969C48.4731 25.7969 48.3231 25.9133 48.3231 26.0909C48.3231 26.2929 48.4609 26.3726 49.2937 26.5226C50.2888 26.7002 50.7542 27.0737 50.7542 27.9035C50.7542 28.8741 50.0592 29.3456 48.8467 29.3456C47.7199 29.3487 47.1106 28.9414 46.9912 27.9923Z" fill="white"/>
<path d="M54.7563 27.435V29.2353H53.5193V27.4197L52.019 24.8722H53.3693L54.1807 26.4246L54.9615 24.8722H56.2383L54.7563 27.435Z" fill="white"/>
<path d="M57.542 27.9923L58.7484 27.8208C58.8218 28.1821 59.0576 28.3199 59.4679 28.3199C59.8598 28.3199 60.0588 28.2342 60.0588 27.9923C60.0588 27.7504 59.8965 27.683 59.076 27.5483C58.2707 27.4166 57.6155 27.1411 57.6155 26.2041C57.6155 25.2886 58.3166 24.762 59.4159 24.762C60.4569 24.762 61.0417 25.1754 61.1856 26.051L59.9792 26.2225C59.921 25.8949 59.6853 25.7969 59.3577 25.7969C59.0239 25.7969 58.8739 25.9133 58.8739 26.0909C58.8739 26.2929 59.0117 26.3726 59.8445 26.5226C60.8396 26.7002 61.305 27.0737 61.305 27.9035C61.305 28.8741 60.61 29.3456 59.3975 29.3456C58.2676 29.3487 57.6583 28.9414 57.542 27.9923Z" fill="white"/>
<path d="M66.4247 26.054H65.2244V29.2384H63.9935V26.054H62.7627V24.8752H66.4247V26.054Z" fill="white"/>
<path d="M71.4067 28.2096V29.2384H68.2285V24.8752H71.3393V25.8979H69.4716V26.4888H71.1893V27.5115H69.4716V28.2126H71.4067V28.2096Z" fill="white"/>
<path d="M78.2527 29.2384H77.1259V27.2023L77.1657 26.2929L76.3329 29.1833H75.246L74.4131 26.3144L74.4529 27.2054V29.2415H73.3599V24.8784H75.0898L75.7971 27.5115L75.8155 27.6677L75.843 27.5115L76.5503 24.8784H78.2527V29.2384Z" fill="white"/>
<path d="M80.1387 27.9923L81.345 27.8208C81.4185 28.1821 81.6543 28.3199 82.0646 28.3199C82.4565 28.3199 82.6555 28.2342 82.6555 27.9923C82.6555 27.7504 82.4932 27.683 81.6726 27.5483C80.8674 27.4166 80.2122 27.1411 80.2122 26.2041C80.2122 25.2886 80.9133 24.762 82.0125 24.762C83.0535 24.762 83.6384 25.1754 83.7823 26.051L82.5759 26.2225C82.5177 25.8949 82.282 25.7969 81.9543 25.7969C81.6206 25.7969 81.4706 25.9133 81.4706 26.0909C81.4706 26.2929 81.6083 26.3726 82.4412 26.5226C83.4363 26.7002 83.9017 27.0737 83.9017 27.9035C83.9017 28.8741 83.2066 29.3456 81.9942 29.3456C80.8674 29.3487 80.2581 28.9414 80.1387 27.9923Z" fill="white"/>
<path d="M88.0474 27.0829C88.0474 25.6561 88.9445 24.7651 90.1631 24.7651C91.2317 24.7651 91.9573 25.2488 92.089 26.3572L90.9102 26.5134C90.8245 26.0602 90.5642 25.8857 90.1815 25.8857C89.7222 25.8857 89.3762 26.2837 89.3762 27.0523C89.3762 27.8575 89.7038 28.225 90.1815 28.225C90.5673 28.225 90.8367 28.0535 90.9408 27.5758L92.1135 27.732C91.9818 28.8312 91.1827 29.3517 90.1141 29.3517C88.9261 29.3487 88.0474 28.5679 88.0474 27.0829Z" fill="white"/>
<path d="M93.709 27.0767C93.709 25.6285 94.6398 24.7589 95.9502 24.7589C97.3005 24.7589 98.1915 25.5856 98.1915 27.04C98.1915 28.4882 97.2607 29.3517 95.9502 29.3517C94.6 29.3486 93.709 28.5311 93.709 27.0767ZM96.8749 27.0553C96.8749 26.3082 96.5197 25.8826 95.9502 25.8826C95.3869 25.8826 95.0409 26.3082 95.0409 27.0553C95.0409 27.8024 95.3746 28.2219 95.9502 28.2219C96.5136 28.2219 96.8749 27.8085 96.8749 27.0553Z" fill="white"/>
<path d="M101.847 27.9218H101.358V29.2384H100.111V24.8752H102.117C103.219 24.8752 103.841 25.4264 103.841 26.3939C103.841 27.0093 103.553 27.4503 103.066 27.6921L103.939 29.2384H102.524L101.847 27.9218ZM101.354 26.9114H101.964C102.337 26.9114 102.561 26.7552 102.561 26.4276C102.561 26.0939 102.343 25.95 101.964 25.95H101.354V26.9114Z" fill="white"/>
<path d="M109.539 26.4796C109.539 27.5207 108.865 28.1116 107.717 28.1116H107.003V29.2384H105.757V24.8752H107.757C108.929 24.8752 109.539 25.4386 109.539 26.4796ZM107.613 25.9469H107.003V27.0338H107.613C108.026 27.0338 108.268 26.8563 108.274 26.4827C108.28 26.1184 108.017 25.9469 107.613 25.9469Z" fill="white"/>
<path d="M111.131 27.0767C111.131 25.6285 112.062 24.7589 113.372 24.7589C114.722 24.7589 115.613 25.5856 115.613 27.04C115.613 28.4882 114.683 29.3517 113.372 29.3517C112.022 29.3486 111.131 28.5311 111.131 27.0767ZM114.294 27.0553C114.294 26.3082 113.939 25.8826 113.369 25.8826C112.806 25.8826 112.46 26.3082 112.46 27.0553C112.46 27.8024 112.793 28.2219 113.369 28.2219C113.936 28.2219 114.294 27.8085 114.294 27.0553Z" fill="white"/>
<path d="M119.269 27.9218H118.779V29.2384H117.533V24.8752H119.539C120.641 24.8752 121.263 25.4264 121.263 26.3939C121.263 27.0093 120.975 27.4503 120.488 27.6921L121.361 29.2384H119.946L119.269 27.9218ZM118.776 26.9114H119.386C119.759 26.9114 119.983 26.7552 119.983 26.4276C119.983 26.0939 119.765 25.95 119.386 25.95H118.776V26.9114Z" fill="white"/>
<path d="M125.69 28.5219H124.196L123.966 29.2353H122.741L124.189 24.8722H125.736L127.184 29.2353H125.913L125.69 28.5219ZM125.381 27.5544L125.007 26.3817L124.943 26.1061L124.869 26.3878L124.502 27.5544H125.381Z" fill="white"/>
<path d="M131.765 26.054H130.564V29.2384H129.333V26.054H128.103V24.8752H131.765V26.054Z" fill="white"/>
<path d="M133.565 24.8752H134.811V29.2384H133.565V24.8752Z" fill="white"/>
<path d="M136.725 27.0767C136.725 25.6285 137.655 24.7589 138.966 24.7589C140.316 24.7589 141.207 25.5856 141.207 27.04C141.207 28.4882 140.276 29.3517 138.966 29.3517C137.613 29.3486 136.725 28.5311 136.725 27.0767ZM139.887 27.0553C139.887 26.3082 139.532 25.8826 138.963 25.8826C138.399 25.8826 138.05 26.3082 138.05 27.0553C138.05 27.8024 138.384 28.2219 138.963 28.2219C139.526 28.2219 139.887 27.8085 139.887 27.0553Z" fill="white"/>
<path d="M146.991 24.8752V29.2384H145.748L144.3 26.8226L144.333 27.6738V29.2384H143.127V24.8752H144.437L145.812 27.1686L145.785 26.3817V24.8752H146.991Z" fill="white"/>
<defs>
<linearGradient id="paint0_linear_137_4906" x1="4.45355" y1="18.5667" x2="13.7304" y2="18.5667" gradientUnits="userSpaceOnUse">
<stop stop-color="white"/>
<stop offset="0.5133" stop-color="#A6A8AB"/>
<stop offset="1" stop-color="white"/>
</linearGradient>
<linearGradient id="paint1_linear_137_4906" x1="13.7861" y1="18.5851" x2="23.3178" y2="18.5851" gradientUnits="userSpaceOnUse">
<stop stop-color="white"/>
<stop offset="0.5133" stop-color="#A6A8AB"/>
<stop offset="1" stop-color="white"/>
</linearGradient>
<linearGradient id="paint2_linear_137_4906" x1="23.4497" y1="18.5851" x2="34.3183" y2="18.5851" gradientUnits="userSpaceOnUse">
<stop stop-color="white"/>
<stop offset="0.5133" stop-color="#A6A8AB"/>
<stop offset="1" stop-color="white"/>
</linearGradient>
<linearGradient id="paint3_linear_137_4906" x1="9.21682" y1="14.7968" x2="9.21682" y2="21.7778" gradientUnits="userSpaceOnUse">
<stop stop-color="white"/>
<stop offset="0.5133" stop-color="#E5E6E7"/>
<stop offset="1" stop-color="white"/>
</linearGradient>
<linearGradient id="paint4_linear_137_4906" x1="18.2815" y1="14.7968" x2="18.2815" y2="21.7778" gradientUnits="userSpaceOnUse">
<stop stop-color="white"/>
<stop offset="0.5133" stop-color="#E5E6E7"/>
<stop offset="1" stop-color="white"/>
</linearGradient>
<linearGradient id="paint5_linear_137_4906" x1="28.2781" y1="14.7968" x2="28.2781" y2="21.7778" gradientUnits="userSpaceOnUse">
<stop stop-color="white"/>
<stop offset="0.5133" stop-color="#E5E6E7"/>
<stop offset="1" stop-color="white"/>
</linearGradient>
<linearGradient id="paint6_linear_137_4906" x1="33.2228" y1="13.3268" x2="37.0097" y2="13.3268" gradientUnits="userSpaceOnUse">
<stop stop-color="white"/>
<stop offset="0.5133" stop-color="#A6A8AB"/>
<stop offset="1" stop-color="white"/>
</linearGradient>
<linearGradient id="paint7_linear_137_4906" x1="34.9049" y1="12.0068" x2="34.9049" y2="14.4392" gradientUnits="userSpaceOnUse">
<stop stop-color="white"/>
<stop offset="0.5133" stop-color="#E5E6E7"/>
<stop offset="1" stop-color="white"/>
</linearGradient>
</defs>
</svg>
