<svg width="149" height="40" viewBox="0 0 149 40" fill="none" xmlns="http://www.w3.org/2000/svg">
<path d="M34.0498 31.0449C34.0498 31.0449 33.7574 29.4452 34.408 29.087C35.0598 28.7288 35.6627 28.8124 35.6627 28.8124L35.9457 29.6314C37.8726 26.6408 38.9912 23.0915 38.9912 19.2831C38.9912 8.63393 30.2629 0 19.4956 0C8.72825 0 0 8.63274 0 19.2831C0 24.9766 2.49515 30.0922 6.46112 33.6224L6.71303 33.552V32.1815H10.1036L9.46367 28.4256C9.46367 28.4256 9.65706 27.8705 11.1291 27.8705C12.6011 27.8705 13.0739 28.4256 13.0739 28.4256L13.6147 32.1815H15.0986V28.933C15.0986 28.933 17.4756 28.2167 18.876 28.933C18.876 30.3895 18.876 32.2746 18.876 32.2746H20.3122V29.0046C20.3122 29.0046 20.7348 28.6154 22.2307 28.6154C23.7266 28.6154 24.1254 29.0285 24.1254 29.0285V32.2197H25.6583L26.2015 28.2418C26.2015 28.2418 28.5736 27.301 29.6386 28.428C29.1455 31.7982 29.1097 32.1827 29.1097 32.1827H32.5492V33.6057C32.9455 33.2523 33.3264 32.8823 33.6917 32.4978L34.0498 31.0449Z" fill="#39B44A"/>
<path d="M31.1953 35.3822L30.8491 36.1821H35.6305C35.6305 36.1821 36.9784 31.8974 37.2768 29.1085L35.2126 28.9032C35.2126 28.9032 34.5142 29.5586 34.5142 30.8742C34.5142 31.1918 34.5453 31.3852 34.5453 31.3852L33.4469 35.2461H31.4759L31.1953 35.3822Z" fill="#E5E6E7"/>
<path d="M7.83154 32.3402V33.7072H9.2391L10.6574 38.9506H29.2672L30.7941 33.6893H32.327V32.3832L7.83154 32.3402Z" fill="#58595B"/>
<path d="M20.8555 32.3403V29.0047C20.8555 29.0047 22.8671 28.6214 23.8962 29.2482C23.8962 31.5404 23.8962 32.4203 23.8962 32.4203L20.8555 32.3403Z" fill="#808184"/>
<path d="M15.8315 32.2614V29.0428C15.8315 29.0428 17.9112 28.3599 18.8723 29.2577C18.8723 31.4377 18.8723 32.3832 18.8723 32.3832L15.8315 32.2614Z" fill="#E5E6E7"/>
<path d="M4.04246 36.1343C4.04246 36.1343 2.6946 31.6717 2.48926 28.9951C3.70579 28.8638 5.26496 28.4089 5.26496 31.316C5.26496 32.2018 6.25108 35.233 6.25108 35.233H8.70923L8.83338 36.2561L4.04246 36.1343Z" fill="#808184"/>
<path d="M33.4778 36.182H32.8916V39.9999H33.4778V36.182Z" fill="#231F20"/>
<path d="M35.9111 36.4746H30.1006V35.8884H35.4956C35.7272 35.1935 36.5163 32.6817 37.0202 29.2482C36.4638 29.1849 35.215 29.0977 34.4319 29.4511C34.1024 29.6135 34.0833 30.6832 34.0761 31.0855C34.0737 31.2491 34.0713 31.378 34.0594 31.4675C34.0116 31.8281 33.1306 34.7494 32.9551 35.332L32.8918 35.5398H30.4384V34.9536H32.4572C32.8608 33.6141 33.4481 31.6204 33.4792 31.3911C33.4863 31.335 33.4887 31.2097 33.4911 31.076C33.5031 30.3919 33.5234 29.2458 34.1836 28.9211C35.3822 28.3814 37.3198 28.6942 37.4022 28.7074L37.6839 28.7539L37.6445 29.0369C37.0488 33.3025 35.9934 36.2525 35.9827 36.2811L35.9111 36.4746Z" fill="#231F20"/>
<path d="M24.246 32.3832H23.6598V29.3711C22.1758 28.8088 20.8662 29.1992 20.4197 29.3676V32.382H19.8335V28.9915L19.9959 28.9103C20.0735 28.8721 21.9108 27.9815 24.0681 28.9031L24.246 28.9796V32.3832Z" fill="#231F20"/>
<path d="M6.14136 36.182H5.55518V39.9999H6.14136V36.182Z" fill="#231F20"/>
<path d="M8.93225 36.4745H3.12177L3.05134 36.2811C3.04059 36.2524 1.98642 33.3024 1.38949 29.0368L1.3501 28.7539L1.63184 28.7073C1.71422 28.693 3.65065 28.3814 4.84092 28.9162C5.51067 29.2457 5.52977 30.3918 5.54171 31.0759C5.5441 31.2096 5.54649 31.335 5.55365 31.3911C5.5835 31.6203 6.17207 33.614 6.57559 34.9535H8.59439V35.5397H6.14103L6.07775 35.332C5.90106 34.7494 5.01999 31.8292 4.97343 31.4675C4.9615 31.3779 4.95911 31.2502 4.95673 31.0866C4.94956 30.6843 4.93165 29.6134 4.5926 29.4475C3.81659 29.0977 2.57021 29.186 2.01388 29.2493C2.51768 32.684 3.30563 35.1947 3.53724 35.8907H8.93225V36.4745Z" fill="#231F20"/>
<path d="M19.1996 32.3833H18.6134V29.3688C18.1669 29.1993 16.8573 28.8101 15.3733 29.3724V32.3845H14.7871V28.982L14.965 28.9056C17.1223 27.9839 18.9608 28.8745 19.0372 28.9128L19.1996 28.9939V32.3833Z" fill="#231F20"/>
<path d="M32.5981 33.9985H6.36914V32.0955H32.5981V33.9985ZM6.95533 33.4123H32.0119V32.6828H6.95533V33.4123Z" fill="#231F20"/>
<path d="M29.4773 39.3935H9.49339L7.83154 33.7884L8.39265 33.6212L9.93034 38.8073H29.0391L30.5673 33.6224L31.1296 33.7884L29.4773 39.3935Z" fill="#231F20"/>
<path d="M26.7782 28.2561C26.7782 28.2561 26.2207 33.9257 25.2441 36.3123C27.3119 36.3123 28.1631 36.3123 28.1631 36.3123L29.5014 28.4866C29.5014 28.4877 28.2288 27.6771 26.7782 28.2561Z" fill="#BBBDBF"/>
<path d="M11.6354 36.2561C11.6354 36.2561 10.2839 31.9451 10.2075 28.2466C10.8809 27.5732 13.0143 28.6023 13.0143 28.6023L14.54 36.2549H11.6354V36.2561Z" fill="#BBBDBF"/>
<path d="M25.4686 39.9988H24.8824V36.0197H27.9041C28.1106 35.4885 28.7517 33.5294 29.2209 28.7253C28.8615 28.4973 27.7525 27.9481 26.2828 28.705C26.1611 29.6696 25.4949 34.7399 24.6902 36.397L24.6102 36.5617H21.1206V35.9756H24.2378C25.0353 34.0845 25.7134 28.5403 25.7205 28.483L25.7384 28.3349L25.8686 28.2621C28.0569 27.0372 29.6483 28.3015 29.7151 28.3564L29.8369 28.4555L29.8226 28.6107C29.2436 34.679 28.3959 36.3767 28.3601 36.4459L28.2777 36.6047H25.4698V39.9988H25.4686Z" fill="#231F20"/>
<path d="M24.4909 35.5374H21.1206V36.1235H24.4909V35.5374Z" fill="#231F20"/>
<path d="M14.1493 39.9988H13.5631V36.6058H10.7552L10.6728 36.447C10.637 36.3778 9.78817 34.6801 9.20915 28.6118L9.19482 28.4566L9.31659 28.3575C9.38345 28.3026 10.9749 27.0383 13.1632 28.2632L13.2933 28.336L13.3112 28.4841C13.3184 28.5414 13.9965 34.0856 14.794 35.9767H17.9111V36.5628H14.4215L14.3415 36.3981C13.5369 34.741 12.8695 29.6707 12.7489 28.7061C11.2888 27.9564 10.1714 28.502 9.81204 28.7276C10.28 33.5281 10.9223 35.4884 11.1289 36.0208H14.1505V39.9988H14.1493Z" fill="#231F20"/>
<path d="M17.9113 35.5374H14.541V36.1235H17.9113V35.5374Z" fill="#231F20"/>
<path d="M25.8483 36.0197H21.1206V36.6058H25.8483V36.0197Z" fill="#231F20"/>
<path d="M17.9114 36.0197H13.1372V36.6058H17.9114V36.0197Z" fill="#231F20"/>
<path d="M12.9436 18.6277C13.4677 19.1029 13.7303 19.6353 13.7303 20.2263C13.7303 20.6441 13.5954 21.0417 13.3244 21.4189C12.9472 21.9514 12.3741 22.3573 11.6029 22.6367C10.9224 22.8826 10.1679 23.0056 9.34054 23.0056H6.40605L4.4541 20.4806H9.50648C9.79301 20.4806 10.1583 20.6895 10.4114 20.6322C10.7887 20.5498 10.9761 20.4233 10.9761 20.2513C10.9761 20.0794 10.7875 19.9529 10.4114 19.8705C10.1583 19.8132 9.88732 19.7845 9.60199 19.7845H8.22906L6.35113 17.3777H9.51365C9.74287 17.3777 10.0509 17.4637 10.2395 17.3968C10.5093 17.2966 10.6454 17.1497 10.6454 16.9563C10.6454 16.7629 10.5105 16.6208 10.2395 16.5289C10.0509 16.4621 9.84196 16.4286 9.61274 16.4286H6.40724L4.56513 14.1293H9.33934C10.175 14.1293 10.9319 14.269 11.6041 14.522C12.3741 14.8086 12.9484 15.2228 13.3256 15.7637C13.5966 16.1493 13.7315 16.5552 13.7315 16.9814C13.7303 17.5867 13.4677 18.1358 12.9436 18.6277Z" fill="url(#paint0_linear_137_4003)"/>
<path d="M22.6784 14.1532L20.9079 16.4406H19.147C18.2863 16.4406 17.6141 16.683 17.1306 17.1665H20.3301C21.2649 17.1665 22.0063 17.4661 22.5555 18.0643C23.064 18.6134 23.3183 19.2856 23.3183 20.0807C23.3183 20.8841 23.064 21.5599 22.5555 22.109C22.0063 22.7155 21.2649 23.0187 20.3301 23.0187H19.147C17.5974 23.0187 16.3176 22.5901 15.3052 21.7342C14.2928 20.8782 13.7866 19.8025 13.7866 18.5072C13.7866 17.2118 14.288 16.1625 15.2933 15.359C16.2973 14.5555 17.5819 14.1544 19.1482 14.1544H22.6784V14.1532ZM20.3301 20.7301C20.7157 20.7301 20.9079 20.5128 20.9079 20.0783C20.9079 19.9064 20.8674 19.75 20.785 19.6115C20.6704 19.4396 20.5188 19.3536 20.3301 19.3536H16.6757C17.0363 20.2717 17.86 20.7301 19.147 20.7301H20.3301Z" fill="url(#paint1_linear_137_4003)"/>
<path d="M34.3183 18.5048C34.3183 19.8001 33.8121 20.8757 32.7997 21.7317C31.7873 22.5889 30.5111 23.0163 28.9699 23.0163H28.8111C27.2615 23.0163 25.9805 22.5877 24.9693 21.7317C23.9569 20.8757 23.4507 19.8001 23.4507 18.5048C23.4507 17.2094 23.9521 16.16 24.9573 15.3566C25.9614 14.5531 27.2459 14.152 28.8123 14.152H28.9711C30.5362 14.152 31.8196 14.5531 32.82 15.3566C33.8181 16.1612 34.3183 17.2106 34.3183 18.5048ZM28.817 16.4394C28.0566 16.4394 27.4298 16.6424 26.9391 17.0495C26.4484 17.4566 26.2025 17.9759 26.2025 18.6098C26.2025 19.2426 26.4473 19.7547 26.9391 20.1451C27.4298 20.5355 28.0554 20.7301 28.817 20.7301H28.9746C29.7351 20.7301 30.3607 20.5355 30.8514 20.1451C31.342 19.7547 31.588 19.2426 31.588 18.6098C31.588 17.9771 31.3409 17.4566 30.8454 17.0495C30.3511 16.6424 29.7268 16.4394 28.9746 16.4394H28.817Z" fill="url(#paint2_linear_137_4003)"/>
<path d="M12.8551 18.4701C13.3625 18.9297 13.6168 19.4454 13.6168 20.0161C13.6168 20.4208 13.4855 20.8052 13.224 21.1706C12.8587 21.6863 12.3035 22.0791 11.5586 22.3477C10.8996 22.5853 10.1701 22.7047 9.37025 22.7047H6.53008L4.81689 20.4924H9.62096C9.89793 20.4924 10.1594 20.465 10.4053 20.4089C10.7694 20.3301 10.9521 20.2071 10.9521 20.04C10.9521 19.874 10.7694 19.7511 10.4053 19.6711C10.1606 19.6162 9.89912 19.5875 9.62215 19.5875H8.29339L6.57186 17.3753H9.6317C9.85376 17.3753 10.0555 17.3431 10.2382 17.2774C10.4996 17.1795 10.631 17.0374 10.631 16.8512C10.631 16.665 10.4996 16.5265 10.2382 16.4369C10.0555 16.3725 9.85376 16.339 9.6317 16.339H6.53008L4.81689 14.1268H9.36905C10.1785 14.1268 10.9079 14.2498 11.5574 14.4957C12.3023 14.7739 12.8575 15.1738 13.2228 15.6979C13.4843 16.0704 13.6156 16.4632 13.6156 16.8751C13.6168 17.4636 13.3625 17.9949 12.8551 18.4701Z" fill="url(#paint3_linear_137_4003)"/>
<path d="M22.2735 14.14L20.5603 16.3522H18.8567C18.0246 16.3522 17.374 16.5862 16.906 17.0542H20.0016C20.9054 17.0542 21.6229 17.3443 22.1541 17.9221C22.646 18.4534 22.8919 19.104 22.8919 19.8729C22.8919 20.6501 22.646 21.3043 22.1541 21.8356C21.6229 22.4229 20.9054 22.7154 20.0016 22.7154H18.8567C17.3584 22.7154 16.1192 22.3012 15.1391 21.4726C14.1589 20.6441 13.6694 19.6031 13.6694 18.3495C13.6694 17.096 14.1553 16.0812 15.1271 15.304C16.0989 14.5268 17.3417 14.1388 18.8567 14.1388H22.2735V14.14ZM20.0016 20.5044C20.3741 20.5044 20.5603 20.2943 20.5603 19.8741C20.5603 19.7081 20.5209 19.5565 20.4422 19.4216C20.3311 19.2544 20.1843 19.1721 20.0016 19.1721H16.4654C16.814 20.0603 17.6115 20.5044 18.8567 20.5044H20.0016Z" fill="url(#paint4_linear_137_4003)"/>
<path d="M33.5362 18.3518C33.5362 19.6054 33.0467 20.6464 32.0665 21.4749C31.0876 22.3035 29.8519 22.7177 28.3608 22.7177H28.2068C26.7085 22.7177 25.4681 22.3035 24.4892 21.4749C23.5102 20.6464 23.0195 19.6054 23.0195 18.3518C23.0195 17.0983 23.5054 16.0835 24.4772 15.3063C25.449 14.5291 26.6918 14.1411 28.2068 14.1411H28.3608C29.8758 14.1411 31.1162 14.5303 32.0844 15.3063C33.0515 16.0835 33.5362 17.0983 33.5362 18.3518ZM28.214 16.3533C27.4774 16.3533 26.8721 16.5503 26.3981 16.9443C25.923 17.3382 25.6854 17.8409 25.6854 18.4533C25.6854 19.0658 25.923 19.5612 26.3981 19.9385C26.8733 20.3157 27.4786 20.5055 28.214 20.5055H28.3668C29.1034 20.5055 29.7087 20.3169 30.1826 19.9385C30.6578 19.5612 30.8954 19.0658 30.8954 18.4533C30.8954 17.8409 30.6554 17.3382 30.1767 16.9443C29.6979 16.5503 29.0938 16.3533 28.3668 16.3533H28.214Z" fill="url(#paint5_linear_137_4003)"/>
<path d="M37.0093 13.2984C37.0093 13.7497 36.8327 14.1245 36.4805 14.423C36.1283 14.7215 35.683 14.8707 35.1457 14.8707H35.0908C34.5512 14.8707 34.1047 14.7215 33.7525 14.423C33.4003 14.1245 33.2236 13.7497 33.2236 13.2984C33.2236 12.8471 33.3991 12.4818 33.7489 12.2012C34.0987 11.9219 34.5464 11.781 35.092 11.781H35.1469C35.6925 11.781 36.139 11.9207 36.4876 12.2012C36.835 12.4818 37.0093 12.8483 37.0093 13.2984ZM35.0932 12.5797C34.8282 12.5797 34.6097 12.6501 34.439 12.7922C34.2683 12.9343 34.1823 13.1157 34.1823 13.3354C34.1823 13.5563 34.2683 13.7341 34.439 13.8702C34.6097 14.0063 34.8282 14.0744 35.0932 14.0744H35.1481C35.4132 14.0744 35.6316 14.0063 35.8024 13.8702C35.9731 13.7341 36.059 13.5563 36.059 13.3354C36.059 13.1145 35.9731 12.9331 35.8 12.7922C35.6281 12.6501 35.4096 12.5797 35.1481 12.5797H35.0932Z" fill="url(#paint6_linear_137_4003)"/>
<path d="M36.7369 13.2458C36.7369 13.6828 36.5662 14.0457 36.2247 14.3334C35.8833 14.6223 35.4535 14.7668 34.933 14.7668H34.8793C34.3576 14.7668 33.9254 14.6223 33.5839 14.3334C33.2425 14.0445 33.0718 13.6816 33.0718 13.2458C33.0718 12.8089 33.2413 12.4555 33.5792 12.1845C33.917 11.9135 34.3504 11.7786 34.8781 11.7786H34.9318C35.4595 11.7786 35.8916 11.9135 36.2295 12.1845C36.5686 12.4555 36.7369 12.8089 36.7369 13.2458ZM34.8828 12.5486C34.6262 12.5486 34.4149 12.6166 34.2501 12.7539C34.0842 12.8912 34.0018 13.0667 34.0018 13.2792C34.0018 13.4929 34.0842 13.6649 34.2501 13.7974C34.4161 13.9287 34.6262 13.9944 34.8828 13.9944H34.9366C35.1933 13.9944 35.4034 13.9287 35.5693 13.7974C35.7353 13.666 35.8176 13.4929 35.8176 13.2792C35.8176 13.0655 35.7341 12.89 35.5669 12.7539C35.3998 12.6178 35.1897 12.5486 34.9366 12.5486H34.8828Z" fill="url(#paint7_linear_137_4003)"/>
<path d="M55.816 19.1027C55.816 21.1368 54.1974 22.4019 51.4284 22.4019C48.6098 22.4019 47.3137 21.4097 46.9912 19.1678L49.7292 18.7833C49.9214 19.5523 50.3866 19.8252 51.3943 19.8252C52.4021 19.8252 52.9323 19.4872 52.9323 18.8329C52.9323 18.2096 52.4827 17.8407 51.4284 17.8407H50.1323V15.6639H51.0129C52.1509 15.6639 52.6315 15.3445 52.6315 14.7027C52.6315 14.1724 52.2005 13.8065 51.3354 13.8065C50.4858 13.8065 49.9742 14.0949 49.7974 14.7988L47.0904 14.4298C47.4098 12.3802 48.9168 11.2112 51.4625 11.2112C53.9277 11.2112 55.4005 12.3492 55.4005 14.1259C55.4005 15.1988 55.016 16.0143 53.9742 16.529C55.0812 16.8608 55.816 17.6608 55.816 19.1027Z" fill="#231F20"/>
<path d="M66.129 18.6066C66.129 21.0562 64.2406 22.402 61.5492 22.402C58.4422 22.402 56.8887 20.6872 56.8887 16.9415C56.8887 13.0655 58.7616 11.2081 61.7414 11.2081C64.0143 11.2081 65.4561 12.1849 65.8406 14.4267L62.9414 14.8112C62.7647 14.0919 62.3492 13.7229 61.5802 13.7384C60.6034 13.7539 59.9802 14.3151 60.0112 16.4609C60.6344 15.7074 61.6453 15.3725 62.8298 15.3725C64.9755 15.3725 66.129 16.6376 66.129 18.6066ZM63.2143 18.7182C63.2143 18.0143 62.6375 17.6143 61.7259 17.6143C60.9724 17.6143 60.2375 17.9678 60.2375 18.7523C60.2375 19.4562 60.8608 19.8562 61.7414 19.8562C62.6065 19.8562 63.2143 19.4562 63.2143 18.7182Z" fill="#231F20"/>
<path d="M67.1836 16.8454C67.1836 13.3229 69.0255 11.1926 72.0673 11.1926C75.2208 11.1926 76.9511 13.1616 76.9511 16.7802C76.9511 20.3027 75.1402 22.4175 72.0518 22.4175C68.9138 22.4175 67.1836 20.4485 67.1836 16.8454ZM73.7015 16.7957C73.7015 14.65 73.1402 13.7539 72.0673 13.7539C71.01 13.7539 70.4332 14.6345 70.4332 16.7957C70.4332 18.957 70.9945 19.8531 72.0673 19.8531C73.1247 19.8562 73.7015 18.9601 73.7015 16.7957Z" fill="#231F20"/>
<path d="M88.3902 16.7647C88.3902 20.1446 86.1948 22.1446 82.6258 22.1446H78.3994V11.4779H82.7219C86.2599 11.481 88.3902 13.3694 88.3902 16.7647ZM85.156 16.8454C85.156 14.988 84.2258 14.1074 82.4645 14.0919L81.4382 14.0764V19.5058L82.4956 19.5213C84.2258 19.5182 85.156 18.6872 85.156 16.8454Z" fill="#231F20"/>
<path d="M97.6268 19.6299V22.1446H89.8594V11.4779H97.4656V13.9771H92.9012V15.419H97.0966V17.9182H92.9012V19.633H97.6268V19.6299Z" fill="#231F20"/>
<path d="M108.71 16.157V22.1477H106.418L106.257 21.4903C105.488 22.1291 104.48 22.4175 103.277 22.4175C100.523 22.4175 98.5049 20.5136 98.5049 16.926C98.5049 13.3229 100.635 11.2081 103.789 11.2081C106.511 11.2081 108.161 12.5694 108.561 14.988L105.55 15.3725C105.358 14.4112 104.7 13.9461 103.773 13.9461C102.555 13.9461 101.755 14.9539 101.755 16.8113C101.755 18.7337 102.524 19.6609 103.739 19.6609C105.131 19.6609 105.661 19.0035 105.9 18.4764H103.978V16.1539H108.71V16.157Z" fill="#231F20"/>
<path d="M114.601 18.926H113.401V22.1446H110.359V11.4779H115.258C117.95 11.4779 119.469 12.8236 119.469 15.1926C119.469 16.6965 118.765 17.7725 117.581 18.3648L119.711 22.1446H116.253L114.601 18.926ZM113.401 16.4609H114.889C115.801 16.4609 116.347 16.0764 116.347 15.2764C116.347 14.4578 115.819 14.1074 114.889 14.1074H113.401V16.4609Z" fill="#231F20"/>
<path d="M128.806 19.6299V22.1446H121.038V11.4779H128.644V13.9771H124.08V15.419H128.275V17.9182H124.08V19.633H128.806V19.6299Z" fill="#231F20"/>
<path d="M138.142 19.6299V22.1446H130.375V11.4779H137.981V13.9771H133.416V15.419H137.612V17.9182H133.416V19.633H138.142V19.6299Z" fill="#231F20"/>
<path d="M139.069 19.1027L142.015 18.6872C142.192 19.5678 142.769 19.9058 143.776 19.9058C144.738 19.9058 145.218 19.698 145.218 19.1058C145.218 18.5135 144.818 18.3523 142.815 18.0174C140.846 17.698 139.243 17.0252 139.243 14.7337C139.243 12.4918 140.955 11.2112 143.646 11.2112C146.192 11.2112 147.618 12.222 147.969 14.3647L145.023 14.7802C144.877 13.9802 144.303 13.7383 143.5 13.7383C142.685 13.7383 142.316 14.0267 142.316 14.4577C142.316 14.9538 142.651 15.1461 144.685 15.5151C147.119 15.9461 148.257 16.8608 148.257 18.8949C148.257 21.2639 146.561 22.4174 143.596 22.4174C140.846 22.4174 139.358 21.4252 139.069 19.1027Z" fill="#231F20"/>
<path d="M46.9912 27.816L48.2129 27.6424C48.2873 28.0083 48.5261 28.1478 48.9416 28.1478C49.3385 28.1478 49.5401 28.061 49.5401 27.816C49.5401 27.571 49.3757 27.5028 48.5447 27.3664C47.7292 27.2331 47.0656 26.954 47.0656 26.0051C47.0656 25.078 47.7757 24.5447 48.8889 24.5447C49.9432 24.5447 50.5354 24.9633 50.6811 25.8501L49.4594 26.0237C49.4005 25.692 49.1618 25.5927 48.83 25.5927C48.492 25.5927 48.34 25.7106 48.34 25.8904C48.34 26.0951 48.4796 26.1757 49.323 26.3276C50.3308 26.5075 50.8021 26.8858 50.8021 27.7261C50.8021 28.709 50.0982 29.1865 48.8703 29.1865C47.7292 29.1896 47.1121 28.7772 46.9912 27.816Z" fill="#39B44A"/>
<path d="M54.8551 27.2516V29.0749H53.6024V27.2361L52.083 24.6562H53.4505L54.2722 26.2284L55.0629 24.6562H56.3559L54.8551 27.2516Z" fill="#39B44A"/>
<path d="M57.6768 27.816L58.8985 27.6424C58.9729 28.0083 59.2116 28.1478 59.6272 28.1478C60.0241 28.1478 60.2256 28.061 60.2256 27.816C60.2256 27.571 60.0613 27.5028 59.2302 27.3664C58.4147 27.2331 57.7512 26.954 57.7512 26.0051C57.7512 25.078 58.4613 24.5447 59.5744 24.5447C60.6287 24.5447 61.221 24.9633 61.3667 25.8501L60.145 26.0237C60.0861 25.692 59.8473 25.5927 59.5155 25.5927C59.1775 25.5927 59.0256 25.7106 59.0256 25.8904C59.0256 26.0951 59.1651 26.1757 60.0085 26.3276C61.0163 26.5075 61.4876 26.8858 61.4876 27.7261C61.4876 28.709 60.7837 29.1865 59.5558 29.1865C58.4116 29.1896 57.7946 28.7772 57.6768 27.816Z" fill="#39B44A"/>
<path d="M66.6719 25.8532H65.4564V29.078H64.2099V25.8532H62.9634V24.6594H66.6719V25.8532Z" fill="#39B44A"/>
<path d="M71.7167 28.0362V29.078H68.498V24.6594H71.6484V25.6951H69.757V26.2935H71.4965V27.3292H69.757V28.0393H71.7167V28.0362Z" fill="#39B44A"/>
<path d="M78.6504 29.0779H77.5093V27.0158L77.5496 26.0949L76.7062 29.0221H75.6054L74.762 26.1166L74.8023 27.0189V29.081H73.6953V24.6624H75.4472L76.1635 27.329L76.1821 27.4872L76.21 27.329L76.9263 24.6624H78.6504V29.0779Z" fill="#39B44A"/>
<path d="M80.5605 27.816L81.7823 27.6424C81.8567 28.0083 82.0954 28.1478 82.5109 28.1478C82.9078 28.1478 83.1094 28.061 83.1094 27.816C83.1094 27.571 82.945 27.5028 82.114 27.3664C81.2985 27.2331 80.635 26.954 80.635 26.0051C80.635 25.078 81.345 24.5447 82.4582 24.5447C83.5125 24.5447 84.1047 24.9633 84.2505 25.8501L83.0288 26.0237C82.9698 25.692 82.7311 25.5927 82.3993 25.5927C82.0613 25.5927 81.9094 25.7106 81.9094 25.8904C81.9094 26.0951 82.0489 26.1757 82.8923 26.3276C83.9001 26.5075 84.3714 26.8858 84.3714 27.7261C84.3714 28.709 83.6675 29.1865 82.4396 29.1865C81.2985 29.1896 80.6815 28.7772 80.5605 27.816Z" fill="#39B44A"/>
<path d="M88.5693 26.895C88.5693 25.45 89.4779 24.5477 90.712 24.5477C91.7942 24.5477 92.529 25.0376 92.6624 26.1601L91.4686 26.3183C91.3818 25.8593 91.1182 25.6826 90.7306 25.6826C90.2655 25.6826 89.9151 26.0857 89.9151 26.864C89.9151 27.6795 90.2469 28.0516 90.7306 28.0516C91.1213 28.0516 91.3942 27.878 91.4996 27.3942L92.6872 27.5524C92.5539 28.6656 91.7445 29.1927 90.6624 29.1927C89.4593 29.1896 88.5693 28.3989 88.5693 26.895Z" fill="#39B44A"/>
<path d="M94.3027 26.8888C94.3027 25.4221 95.2454 24.5415 96.5725 24.5415C97.9399 24.5415 98.8423 25.3787 98.8423 26.8516C98.8423 28.3183 97.8996 29.1927 96.5725 29.1927C95.205 29.1896 94.3027 28.3617 94.3027 26.8888ZM97.5089 26.8671C97.5089 26.1105 97.1492 25.6795 96.5725 25.6795C96.0019 25.6795 95.6516 26.1105 95.6516 26.8671C95.6516 27.6237 95.9895 28.0485 96.5725 28.0485C97.143 28.0485 97.5089 27.6299 97.5089 26.8671Z" fill="#39B44A"/>
<path d="M102.545 27.7447H102.049V29.078H100.787V24.6594H102.818C103.934 24.6594 104.564 25.2176 104.564 26.1974C104.564 26.8207 104.272 27.2672 103.779 27.5122L104.663 29.078H103.231L102.545 27.7447ZM102.046 26.7214H102.663C103.041 26.7214 103.268 26.5633 103.268 26.2315C103.268 25.8935 103.048 25.7478 102.663 25.7478H102.046V26.7214Z" fill="#39B44A"/>
<path d="M110.334 26.2842C110.334 27.3385 109.652 27.937 108.489 27.937H107.767V29.078H106.505V24.6594H108.53C109.717 24.6594 110.334 25.23 110.334 26.2842ZM108.384 25.7447H107.767V26.8455H108.384C108.803 26.8455 109.048 26.6656 109.054 26.2873C109.06 25.9183 108.793 25.7447 108.384 25.7447Z" fill="#39B44A"/>
<path d="M111.946 26.8888C111.946 25.4221 112.889 24.5415 114.216 24.5415C115.584 24.5415 116.486 25.3787 116.486 26.8516C116.486 28.3183 115.543 29.1927 114.216 29.1927C112.849 29.1896 111.946 28.3617 111.946 26.8888ZM115.149 26.8671C115.149 26.1105 114.79 25.6795 114.213 25.6795C113.642 25.6795 113.292 26.1105 113.292 26.8671C113.292 27.6237 113.63 28.0485 114.213 28.0485C114.787 28.0485 115.149 27.6299 115.149 26.8671Z" fill="#39B44A"/>
<path d="M120.188 27.7447H119.692V29.078H118.43V24.6594H120.461C121.577 24.6594 122.207 25.2176 122.207 26.1974C122.207 26.8207 121.915 27.2672 121.422 27.5122L122.306 29.078H120.874L120.188 27.7447ZM119.689 26.7214H120.306C120.684 26.7214 120.911 26.5633 120.911 26.2315C120.911 25.8935 120.691 25.7478 120.306 25.7478H119.689V26.7214Z" fill="#39B44A"/>
<path d="M126.691 28.3524H125.177L124.945 29.0749H123.705L125.171 24.6562H126.737L128.204 29.0749H126.917L126.691 28.3524ZM126.377 27.3725L125.999 26.1849L125.934 25.9059L125.86 26.1911L125.488 27.3725H126.377Z" fill="#39B44A"/>
<path d="M132.843 25.8532H131.627V29.078H130.381V25.8532H129.134V24.6594H132.843V25.8532Z" fill="#39B44A"/>
<path d="M134.666 24.6594H135.928V29.078H134.666V24.6594Z" fill="#39B44A"/>
<path d="M137.866 26.8888C137.866 25.4221 138.809 24.5415 140.136 24.5415C141.503 24.5415 142.406 25.3787 142.406 26.8516C142.406 28.3183 141.463 29.1927 140.136 29.1927C138.765 29.1896 137.866 28.3617 137.866 26.8888ZM141.069 26.8671C141.069 26.1105 140.71 25.6795 140.133 25.6795C139.562 25.6795 139.209 26.1105 139.209 26.8671C139.209 27.6237 139.547 28.0485 140.133 28.0485C140.703 28.0485 141.069 27.6299 141.069 26.8671Z" fill="#39B44A"/>
<path d="M148.263 24.6594V29.078H147.004L145.537 26.6315L145.571 27.4935V29.078H144.35V24.6594H145.677L147.069 26.9819L147.041 26.185V24.6594H148.263Z" fill="#39B44A"/>
<defs>
<linearGradient id="paint0_linear_137_4003" x1="4.45355" y1="18.5667" x2="13.7304" y2="18.5667" gradientUnits="userSpaceOnUse">
<stop stop-color="white"/>
<stop offset="0.5133" stop-color="#A6A8AB"/>
<stop offset="1" stop-color="white"/>
</linearGradient>
<linearGradient id="paint1_linear_137_4003" x1="13.7861" y1="18.5851" x2="23.3178" y2="18.5851" gradientUnits="userSpaceOnUse">
<stop stop-color="white"/>
<stop offset="0.5133" stop-color="#A6A8AB"/>
<stop offset="1" stop-color="white"/>
</linearGradient>
<linearGradient id="paint2_linear_137_4003" x1="23.4497" y1="18.5851" x2="34.3183" y2="18.5851" gradientUnits="userSpaceOnUse">
<stop stop-color="white"/>
<stop offset="0.5133" stop-color="#A6A8AB"/>
<stop offset="1" stop-color="white"/>
</linearGradient>
<linearGradient id="paint3_linear_137_4003" x1="9.21682" y1="14.7968" x2="9.21682" y2="21.7778" gradientUnits="userSpaceOnUse">
<stop stop-color="white"/>
<stop offset="0.5133" stop-color="#E5E6E7"/>
<stop offset="1" stop-color="white"/>
</linearGradient>
<linearGradient id="paint4_linear_137_4003" x1="18.2815" y1="14.7968" x2="18.2815" y2="21.7778" gradientUnits="userSpaceOnUse">
<stop stop-color="white"/>
<stop offset="0.5133" stop-color="#E5E6E7"/>
<stop offset="1" stop-color="white"/>
</linearGradient>
<linearGradient id="paint5_linear_137_4003" x1="28.2781" y1="14.7967" x2="28.2781" y2="21.7777" gradientUnits="userSpaceOnUse">
<stop stop-color="white"/>
<stop offset="0.5133" stop-color="#E5E6E7"/>
<stop offset="1" stop-color="white"/>
</linearGradient>
<linearGradient id="paint6_linear_137_4003" x1="33.2228" y1="13.3268" x2="37.0097" y2="13.3268" gradientUnits="userSpaceOnUse">
<stop stop-color="white"/>
<stop offset="0.5133" stop-color="#A6A8AB"/>
<stop offset="1" stop-color="white"/>
</linearGradient>
<linearGradient id="paint7_linear_137_4003" x1="34.9049" y1="12.0068" x2="34.9049" y2="14.4392" gradientUnits="userSpaceOnUse">
<stop stop-color="white"/>
<stop offset="0.5133" stop-color="#E5E6E7"/>
<stop offset="1" stop-color="white"/>
</linearGradient>
</defs>
</svg>
