<svg width="16" height="16" viewBox="0 0 16 16" fill="none" xmlns="http://www.w3.org/2000/svg">
<path fill-rule="evenodd" clip-rule="evenodd" d="M7.99967 1.33339C6.58519 1.33339 5.22863 1.8953 4.22844 2.89549C3.22824 3.89569 2.66634 5.25224 2.66634 6.66673C2.66634 8.7321 4.01017 10.7362 5.48364 12.2916C6.20675 13.0548 6.93212 13.6797 7.47746 14.114C7.68042 14.2756 7.85769 14.4102 7.99967 14.5151C8.14166 14.4102 8.31893 14.2756 8.52189 14.114C9.06723 13.6797 9.7926 13.0548 10.5157 12.2916C11.9892 10.7362 13.333 8.7321 13.333 6.66673C13.333 5.25224 12.7711 3.89569 11.7709 2.89549C10.7707 1.8953 9.41416 1.33339 7.99967 1.33339ZM7.99967 15.3334C7.62987 15.8881 7.62971 15.888 7.62951 15.8879L7.62761 15.8866L7.62317 15.8836L7.60789 15.8733C7.59491 15.8644 7.57639 15.8518 7.55271 15.8354C7.50536 15.8026 7.43732 15.7548 7.35154 15.6929C7.18004 15.569 6.93725 15.3882 6.64689 15.157C6.06723 14.6954 5.2926 14.0286 4.51571 13.2086C2.98918 11.5972 1.33301 9.26802 1.33301 6.66673C1.33301 4.89862 2.03539 3.20292 3.28563 1.95268C4.53587 0.70244 6.23156 6.10352e-05 7.99967 6.10352e-05C9.76778 6.10352e-05 11.4635 0.70244 12.7137 1.95268C13.964 3.20292 14.6663 4.89862 14.6663 6.66673C14.6663 9.26802 13.0102 11.5972 11.4836 13.2086C10.7067 14.0286 9.93212 14.6954 9.35246 15.157C9.0621 15.3882 8.81931 15.569 8.64781 15.6929C8.56203 15.7548 8.49399 15.8026 8.44664 15.8354C8.42296 15.8518 8.40444 15.8644 8.39146 15.8733L8.37618 15.8836L8.37174 15.8866L8.37033 15.8875C8.37014 15.8876 8.36947 15.8881 7.99967 15.3334ZM7.99967 15.3334L8.36947 15.8881C8.14554 16.0374 7.85345 16.0371 7.62951 15.8879L7.99967 15.3334ZM7.99967 5.33339C7.2633 5.33339 6.66634 5.93035 6.66634 6.66673C6.66634 7.40311 7.2633 8.00006 7.99967 8.00006C8.73605 8.00006 9.33301 7.40311 9.33301 6.66673C9.33301 5.93035 8.73605 5.33339 7.99967 5.33339ZM5.33301 6.66673C5.33301 5.19397 6.52692 4.00006 7.99967 4.00006C9.47243 4.00006 10.6663 5.19397 10.6663 6.66673C10.6663 8.13949 9.47243 9.3334 7.99967 9.3334C6.52692 9.3334 5.33301 8.13949 5.33301 6.66673Z" fill="white"/>
</svg>
