<svg width="17" height="16" viewBox="0 0 17 16" fill="none" xmlns="http://www.w3.org/2000/svg">
<path fill-rule="evenodd" clip-rule="evenodd" d="M5.50257 0.754464C5.69611 0.643874 5.93211 0.637323 6.13148 0.737008L11.1457 3.24411L15.5026 0.754464C15.7089 0.636558 15.9624 0.637405 16.168 0.756686C16.3735 0.875967 16.5 1.09565 16.5 1.33329V12C16.5 12.2392 16.3718 12.4601 16.1641 12.5788L11.4974 15.2455C11.3039 15.356 11.0679 15.3626 10.8685 15.2629L5.85431 12.7558L1.49743 15.2455C1.29109 15.3634 1.03759 15.3625 0.832049 15.2432C0.626506 15.124 0.5 14.9043 0.5 14.6666V3.99996C0.5 3.76072 0.628191 3.53983 0.835907 3.42113L5.50257 0.754464ZM6.5 11.5879L10.5 13.5879V4.41198L6.5 2.41198V11.5879ZM5.16667 2.48208V11.6131L1.83333 13.5178V4.38684L5.16667 2.48208ZM11.8333 4.38684V13.5178L15.1667 11.6131V2.48208L11.8333 4.38684Z" fill="white"/>
</svg>
