<svg width="17" height="16" viewBox="0 0 17 16" fill="none" xmlns="http://www.w3.org/2000/svg">
<path d="M3.23959 0.666723C2.96196 0.666993 2.68758 0.72511 2.4336 0.837296C2.17961 0.949479 1.95151 1.1127 1.76433 1.31776C1.57712 1.52283 1.43498 1.76559 1.34636 2.0287C1.25775 2.29181 1.22371 2.56988 1.2487 2.84641C1.24911 2.84989 1.24954 2.85336 1.25 2.85683C1.47985 5.02121 2.21782 7.10161 3.40104 8.92844V8.92978C4.47669 10.6207 5.91137 12.0541 7.60287 13.129C9.42048 14.3066 11.4875 15.0421 13.6406 15.2761C13.645 15.2766 13.6493 15.2771 13.6536 15.2775C13.9309 15.3024 14.2101 15.269 14.474 15.1798C14.7379 15.0906 14.9797 14.9475 15.1849 14.7592C15.3899 14.5712 15.5538 14.3423 15.6654 14.0874V14.086C15.7766 13.8312 15.8345 13.5557 15.8333 13.2774V11.2969C15.8455 10.8067 15.6764 10.3286 15.3594 9.95448C15.0424 9.5804 14.5989 9.33546 14.1133 9.26698C14.1111 9.26653 14.1089 9.26608 14.1067 9.26565C13.5171 9.18788 12.9389 9.04383 12.3815 8.83596H12.3802C12.0226 8.70175 11.6339 8.67291 11.2604 8.75263C10.8864 8.83233 10.5427 9.01761 10.2708 9.28648L9.82938 9.72789C8.59526 8.94236 7.55768 7.9048 6.77214 6.67063L7.21094 6.23183L7.21354 6.22922C7.48238 5.95736 7.66765 5.61353 7.74739 5.23964C7.82705 4.86615 7.79819 4.47738 7.66406 4.11985V4.11855C7.45618 3.56117 7.31217 2.98307 7.23438 2.39329C7.23394 2.39111 7.2335 2.38894 7.23304 2.38677C7.16518 1.90638 6.92514 1.46614 6.55729 1.1498C6.18945 0.833444 5.71821 0.661955 5.23308 0.666723H3.23959ZM3.23959 2.00006H5.23959C5.24176 2.00007 5.24393 2.00007 5.2461 2.00006C5.40804 1.99846 5.56472 2.05592 5.6875 2.16151C5.81028 2.2671 5.8901 2.41263 5.91276 2.57297V2.56777C6.00376 3.25765 6.17209 3.93404 6.41537 4.58599V4.5886C6.46024 4.70796 6.47061 4.83629 6.44401 4.961C6.41741 5.08571 6.35528 5.20106 6.26563 5.29172L5.42188 6.13547C5.31869 6.23872 5.25223 6.37297 5.23271 6.51763C5.21319 6.66228 5.24168 6.80935 5.3138 6.93625C6.32214 8.70955 7.79053 10.1779 9.5638 11.1863C9.69071 11.2584 9.83778 11.2869 9.98243 11.2673C10.1271 11.2478 10.2613 11.1814 10.3646 11.0782L11.2083 10.2344C11.299 10.1448 11.4131 10.0826 11.5378 10.056H11.5391C11.6637 10.0295 11.7922 10.0398 11.9115 10.0847H11.9141C12.566 10.3279 13.2424 10.4963 13.9323 10.5873H13.9271C14.0892 10.6101 14.2366 10.6915 14.3425 10.8165C14.4483 10.9414 14.5041 11.0995 14.5 11.2631C14.5 11.2687 14.5 11.2744 14.5 11.28V13.2826C14.5004 13.3753 14.4813 13.467 14.4441 13.5521C14.407 13.637 14.3522 13.7134 14.2839 13.7761C14.2155 13.8389 14.1347 13.887 14.0469 13.9167C13.9603 13.946 13.8688 13.957 13.7774 13.9493C11.8325 13.7367 9.96459 13.0724 8.32296 12.0079C8.32123 12.0065 8.3195 12.0052 8.31776 12.0039C6.78954 11.0328 5.49322 9.73784 4.52214 8.20969C4.52128 8.20795 4.52041 8.20622 4.51953 8.20449C3.45052 6.55431 2.7864 4.67519 2.57813 2.72011C2.57091 2.63013 2.58054 2.54011 2.60938 2.45448C2.63893 2.36674 2.68631 2.28585 2.7487 2.2175C2.8111 2.14915 2.8867 2.09474 2.97136 2.05735C3.05564 2.02012 3.14744 2.00032 3.23959 2.00006Z" fill="white"/>
</svg>
