<svg width="17" height="16" viewBox="0 0 17 16" fill="none" xmlns="http://www.w3.org/2000/svg">
<g clip-path="url(#clip0_140_1559)">
<path fill-rule="evenodd" clip-rule="evenodd" d="M8.49992 2C8.49998 2 8.50001 2 8.50001 2.66667L8.50001 3.33333L8.4497 3.33341C8.41634 3.33348 8.36706 3.33363 8.30382 3.33392C8.17732 3.33452 7.99502 3.33571 7.77256 3.33809C7.32739 3.34285 6.72267 3.35237 6.08315 3.37137C5.44257 3.39041 4.77242 3.41881 4.19476 3.46094C3.60269 3.50413 3.16276 3.5584 2.94358 3.61613C2.74445 3.67333 2.56373 3.78169 2.41944 3.93044C2.27869 4.07555 2.17741 4.25413 2.12509 4.44917C1.92539 5.56491 1.82774 6.69654 1.83334 7.83004L1.83338 7.83752C1.82623 8.97566 1.92315 10.1121 2.123 11.2325C2.18075 11.4176 2.28304 11.5859 2.42107 11.7225C2.56567 11.8656 2.74464 11.9691 2.94077 12.0231C3.15899 12.0811 3.60015 12.1357 4.19476 12.1791C4.77242 12.2212 5.44257 12.2496 6.08315 12.2686C6.72267 12.2876 7.32739 12.2972 7.77256 12.3019C7.99502 12.3043 8.17732 12.3055 8.30382 12.3061C8.36706 12.3064 8.41634 12.3065 8.4497 12.3066H8.55033C8.58369 12.3065 8.63297 12.3064 8.69621 12.3061C8.82271 12.3055 9.00501 12.3043 9.22747 12.3019C9.67265 12.2972 10.2774 12.2876 10.9169 12.2686C11.5575 12.2496 12.2276 12.2212 12.8053 12.1791C13.3973 12.1359 13.8373 12.0816 14.0564 12.0239C14.2556 11.9667 14.4363 11.8583 14.5806 11.7096C14.7213 11.5645 14.8226 11.3859 14.8749 11.1908C15.0731 10.0836 15.1707 8.96062 15.1667 7.83573L15.1667 7.82915C15.1738 6.68705 15.0762 5.54672 14.8749 4.42251C14.8226 4.22747 14.7213 4.04889 14.5806 3.90378C14.4379 3.75672 14.2597 3.64915 14.0633 3.59145C13.8367 3.53813 13.3951 3.48899 12.8095 3.44998C12.2306 3.41144 11.5596 3.38548 10.9186 3.36809C10.2786 3.35072 9.6735 3.34203 9.22809 3.33768C9.0055 3.3355 8.82308 3.33442 8.69648 3.33387L8.55046 3.3334L8.50001 3.33333L8.50001 2.66667C8.50001 2 8.49998 2 8.49992 2L8.55315 2.00007C8.5875 2.00014 8.63783 2.00028 8.70219 2.00055C8.8309 2.0011 9.01578 2.00221 9.24111 2.00441C9.69153 2.00881 10.3048 2.01761 10.9548 2.03525C11.6038 2.05285 12.2944 2.0794 12.8981 2.1196C13.4845 2.15865 14.041 2.21345 14.3915 2.29903C14.3993 2.30094 14.4071 2.30299 14.4148 2.30518C14.8416 2.42591 15.2289 2.65711 15.5376 2.97543C15.8464 3.29375 16.0657 3.68792 16.1734 4.11813C16.177 4.13253 16.1801 4.14705 16.1828 4.16166C16.4013 5.37347 16.5076 6.60288 16.5 7.83422C16.5042 9.04715 16.398 10.2579 16.1828 11.4516C16.1801 11.4663 16.177 11.4808 16.1734 11.4952C16.0657 11.9254 15.8464 12.3196 15.5376 12.6379C15.2289 12.9562 14.8416 13.1874 14.4148 13.3082L14.4056 13.3107C14.0498 13.4058 13.4885 13.4661 12.9023 13.5089C12.2974 13.553 11.6059 13.5821 10.9565 13.6014C10.306 13.6207 9.69238 13.6303 9.24173 13.6352C9.01627 13.6376 8.83128 13.6388 8.70247 13.6394C8.63805 13.6397 8.58767 13.6398 8.55328 13.6399L8.50031 13.64L8.44675 13.6399C8.41236 13.6398 8.36198 13.6397 8.29756 13.6394C8.16875 13.6388 7.98376 13.6376 7.7583 13.6352C7.30764 13.6303 6.69403 13.6207 6.04355 13.6014C5.39413 13.5821 4.70261 13.553 4.09777 13.5089C3.51157 13.4661 2.95021 13.4058 2.59444 13.3107L2.59073 13.3097C2.17269 13.1953 1.79121 12.975 1.48316 12.6702C1.1751 12.3653 0.950887 11.9861 0.832176 11.5693C0.82615 11.5481 0.821175 11.5267 0.817269 11.505C0.59871 10.2933 0.492505 9.06408 0.500005 7.83289C0.494195 6.6109 0.600392 5.39096 0.817264 4.18835C0.819901 4.17373 0.823025 4.15921 0.826632 4.1448C0.934311 3.71459 1.15361 3.32042 1.46238 3.0021C1.77116 2.68378 2.15847 2.45257 2.58519 2.33185L2.59444 2.3293C2.95021 2.23415 3.51157 2.1739 4.09777 2.13114C4.70261 2.08702 5.39413 2.05793 6.04355 2.03863C6.69403 2.0193 7.30764 2.00965 7.7583 2.00483C7.98376 2.00242 8.16875 2.00121 8.29756 2.00061C8.36198 2.0003 8.41236 2.00015 8.44675 2.00008L8.49992 2ZM6.6648 5.07706C6.87001 4.95769 7.12321 4.95645 7.32958 5.07381L11.1629 7.25381C11.3713 7.37232 11.5 7.59359 11.5 7.83332C11.5 8.07305 11.3713 8.29432 11.1629 8.41283L7.32958 10.5928C7.12321 10.7102 6.87001 10.709 6.6648 10.5896C6.45959 10.4702 6.33335 10.2507 6.33335 10.0133V5.65332C6.33335 5.41592 6.45959 5.19643 6.6648 5.07706ZM7.66668 6.79938V8.86726L9.48477 7.83332L7.66668 6.79938Z" fill="white"/>
</g>
<defs>
<clipPath id="clip0_140_1559">
<rect width="16" height="16" fill="white" transform="translate(0.5)"/>
</clipPath>
</defs>
</svg>
